<svg width="128.673" height="48.093" viewBox="0 0 128.673 48.093" xmlns="http://www.w3.org/2000/svg"><g id="svgGroup" stroke-linecap="round" fill-rule="evenodd" font-size="9pt" stroke="#ffffff" stroke-width="0mm" fill="#ffffff" style="stroke:#ffffff;stroke-width:0mm;fill:#ffffff"><path d="M 20.553 20.247 L 20.4 2.193 L 26.469 2.193 L 26.469 36.771 L 21.42 36.771 L 9.792 18.615 Q 8.823 17.136 7.676 15.275 Q 6.528 13.413 5.508 11.832 Q 5.661 13.464 5.789 15.249 A 49.714 49.714 0 0 1 5.908 17.841 A 43.271 43.271 0 0 1 5.916 18.666 L 6.069 36.72 L 0 36.72 L 0 2.091 L 4.743 2.091 L 16.728 20.043 A 88.761 88.761 0 0 1 18.272 22.362 A 101.024 101.024 0 0 1 18.793 23.18 A 152.255 152.255 0 0 0 20.604 25.983 A 138.254 138.254 0 0 0 20.859 26.367 Q 20.757 24.735 20.655 23.078 Q 20.577 21.809 20.559 20.824 A 31.079 31.079 0 0 1 20.553 20.247 Z" id="0"/><path d="M 50.898 31.11 L 52.428 34.731 A 21.099 21.099 0 0 1 50.324 35.64 A 23.995 23.995 0 0 1 49.572 35.904 Q 48.246 36.363 46.512 36.72 Q 44.778 37.077 42.84 37.077 A 16.419 16.419 0 0 1 40.58 36.93 Q 39.033 36.715 37.791 36.185 A 9.119 9.119 0 0 1 35.376 34.695 A 8.266 8.266 0 0 1 34.374 33.66 Q 33.048 32.028 32.436 29.733 Q 31.824 27.438 31.824 24.633 Q 31.824 21.216 32.768 18.615 A 13.757 13.757 0 0 1 34.013 16.022 A 11.226 11.226 0 0 1 35.368 14.255 Q 37.026 12.495 39.27 11.603 A 12.791 12.791 0 0 1 43.47 10.724 A 14.785 14.785 0 0 1 44.115 10.71 A 15.668 15.668 0 0 1 45.835 10.799 Q 46.67 10.892 47.388 11.08 A 8.281 8.281 0 0 1 48.017 11.271 A 8.475 8.475 0 0 1 49.394 11.887 A 6.306 6.306 0 0 1 50.643 12.801 Q 51.663 13.77 52.148 15.096 Q 52.632 16.422 52.632 17.952 A 6.535 6.535 0 0 1 51.679 21.335 A 7.797 7.797 0 0 1 51.612 21.446 A 8.601 8.601 0 0 1 49.939 23.402 A 11.175 11.175 0 0 1 48.679 24.353 Q 46.767 25.602 44.064 26.342 Q 41.361 27.081 37.995 27.132 A 13.084 13.084 0 0 0 38.361 28.954 A 11.736 11.736 0 0 0 38.48 29.351 A 5.753 5.753 0 0 0 39.131 30.749 A 5.216 5.216 0 0 0 39.448 31.187 A 4.282 4.282 0 0 0 40.737 32.252 A 5.175 5.175 0 0 0 41.106 32.436 Q 41.947 32.814 43.134 32.881 A 9.34 9.34 0 0 0 43.656 32.895 Q 44.778 32.895 46.053 32.64 A 21.323 21.323 0 0 0 47.495 32.301 A 17.241 17.241 0 0 0 48.399 32.028 Q 49.674 31.62 50.898 31.11 Z M 43.656 14.688 Q 41.973 14.688 40.877 15.479 Q 39.78 16.269 39.117 17.519 A 9.123 9.123 0 0 0 38.362 19.473 A 10.921 10.921 0 0 0 38.173 20.324 Q 37.893 21.879 37.842 23.46 Q 40.29 23.358 41.999 22.823 A 12.326 12.326 0 0 0 43.27 22.35 Q 43.894 22.076 44.4 21.755 A 6.51 6.51 0 0 0 44.778 21.497 Q 45.849 20.706 46.334 19.788 A 4.305 4.305 0 0 0 46.712 18.813 A 3.572 3.572 0 0 0 46.818 17.952 A 4.099 4.099 0 0 0 46.696 16.925 A 2.952 2.952 0 0 0 45.951 15.581 A 2.898 2.898 0 0 0 44.223 14.726 A 4.066 4.066 0 0 0 43.656 14.688 Z" id="1"/><path d="M 60.435 36.72 L 53.907 36.72 L 62.424 23.256 L 54.978 11.322 L 61.71 11.322 L 64.923 16.575 A 8.796 8.796 0 0 1 65.089 16.865 Q 65.273 17.201 65.511 17.685 A 41.135 41.135 0 0 1 65.739 18.156 L 66.759 20.298 Q 67.371 19.38 67.958 18.462 A 26.67 26.67 0 0 0 68.704 17.224 A 22.779 22.779 0 0 0 69.003 16.677 A 37.655 37.655 0 0 0 69.763 15.213 Q 70.087 14.551 70.337 13.961 A 16.147 16.147 0 0 0 70.763 12.852 A 280.489 280.489 0 0 1 70.884 12.493 Q 71.298 11.277 71.298 11.322 L 77.316 11.322 A 0.001 0.001 0 0 0 77.316 11.321 Q 77.299 11.321 76.761 12.843 A 370.548 370.548 0 0 0 76.704 13.005 A 19.081 19.081 0 0 1 76.232 14.198 Q 75.701 15.43 74.849 17.053 A 70.464 70.464 0 0 1 74.562 17.595 A 28.63 28.63 0 0 1 72.85 20.253 A 31.653 31.653 0 0 1 72.573 20.63 Q 71.451 22.134 70.38 23.307 L 78.642 36.72 L 72.012 36.72 L 68.238 30.141 L 66.249 26.418 L 64.26 30.192 L 60.435 36.72 Z" id="2"/><path d="M 79.152 15.453 L 79.152 11.322 L 83.742 11.322 L 84.762 5.355 L 89.556 4.284 L 89.556 11.322 L 95.829 11.322 L 95.115 15.453 L 89.556 15.453 L 89.556 30.549 A 3.818 3.818 0 0 0 89.595 31.119 Q 89.705 31.843 90.122 32.162 A 1.093 1.093 0 0 0 90.27 32.258 A 3.262 3.262 0 0 0 91.716 32.638 A 3.851 3.851 0 0 0 91.851 32.64 Q 92.565 32.64 93.279 32.538 A 12.405 12.405 0 0 0 93.945 32.425 Q 94.269 32.361 94.554 32.283 Q 95.217 32.13 95.829 31.926 L 96.798 35.751 L 96.339 35.904 Q 95.956 36.075 95.27 36.263 A 18.152 18.152 0 0 1 94.988 36.338 Q 94.221 36.535 93.228 36.694 A 29.185 29.185 0 0 1 92.896 36.746 A 16.054 16.054 0 0 1 91.476 36.89 A 20.545 20.545 0 0 1 90.27 36.924 A 11.678 11.678 0 0 1 88.736 36.827 A 9.412 9.412 0 0 1 87.644 36.618 Q 86.445 36.312 85.578 35.624 A 4.629 4.629 0 0 1 84.273 33.964 A 5.399 5.399 0 0 1 84.227 33.864 A 5.041 5.041 0 0 1 83.887 32.789 Q 83.78 32.266 83.752 31.661 A 9.617 9.617 0 0 1 83.742 31.212 L 83.742 15.453 L 79.152 15.453 Z" id="3"/><path d="M 100.368 36.057 L 100.368 11.322 L 106.182 11.322 L 106.182 35.496 A 18.987 18.987 0 0 1 106.067 37.648 Q 105.945 38.72 105.691 39.628 A 9.411 9.411 0 0 1 105.366 40.596 A 13.009 13.009 0 0 1 104.377 42.584 A 10.259 10.259 0 0 1 103.3 44.039 Q 102.051 45.441 100.496 46.385 A 43.76 43.76 0 0 1 97.793 47.899 A 39.92 39.92 0 0 1 97.41 48.093 L 95.064 44.217 A 15.466 15.466 0 0 0 96.365 43.472 Q 97.353 42.837 98.022 42.152 Q 99.093 41.055 99.603 39.959 A 8.026 8.026 0 0 0 100.037 38.815 A 6.277 6.277 0 0 0 100.24 37.842 A 19.152 19.152 0 0 0 100.318 37.113 Q 100.368 36.535 100.368 36.057 Z M 104.361 0.115 A 4.4 4.4 0 0 0 103.326 0 A 5.699 5.699 0 0 0 103.165 0.002 Q 102.609 0.018 102.144 0.144 A 2.855 2.855 0 0 0 100.699 1.02 A 3.474 3.474 0 0 0 99.954 2.429 A 4.594 4.594 0 0 0 99.807 3.621 A 4.512 4.512 0 0 0 99.815 3.885 A 3.501 3.501 0 0 0 100.674 6.044 A 2.794 2.794 0 0 0 102.163 6.926 A 4.276 4.276 0 0 0 103.173 7.038 Q 104.958 7.038 105.851 6.018 A 3.475 3.475 0 0 0 106.572 4.709 A 4.318 4.318 0 0 0 106.743 3.468 A 4.602 4.602 0 0 0 106.687 2.738 A 3.325 3.325 0 0 0 105.85 0.969 A 2.898 2.898 0 0 0 104.361 0.115 Z" id="4"/><path d="M 128.214 12.699 L 126.48 16.677 Q 125.46 16.218 124.44 15.861 A 23.388 23.388 0 0 0 123.408 15.525 A 29.851 29.851 0 0 0 122.527 15.275 A 8.01 8.01 0 0 0 120.653 14.997 A 7.447 7.447 0 0 0 120.462 14.994 A 4.104 4.104 0 0 0 119.451 15.113 A 3.221 3.221 0 0 0 118.447 15.555 A 1.813 1.813 0 0 0 117.631 16.869 A 2.643 2.643 0 0 0 117.606 17.238 A 3.76 3.76 0 0 0 118.872 20.036 Q 119.921 21.038 121.839 21.777 A 27.768 27.768 0 0 1 123.521 22.49 A 21.928 21.928 0 0 1 124.695 23.078 A 9.564 9.564 0 0 1 126.107 24.002 A 7.966 7.966 0 0 1 126.862 24.684 Q 127.755 25.602 128.214 26.801 A 6.602 6.602 0 0 1 128.558 28.108 Q 128.673 28.815 128.673 29.631 Q 128.673 31.059 128.087 32.436 Q 127.5 33.813 126.353 34.884 A 8.102 8.102 0 0 1 124.463 36.188 A 9.955 9.955 0 0 1 123.547 36.593 A 9.431 9.431 0 0 1 121.366 37.133 A 12.196 12.196 0 0 1 119.799 37.23 Q 118.116 37.23 116.484 36.848 A 32.561 32.561 0 0 1 114.935 36.446 A 24.301 24.301 0 0 1 113.551 36.006 A 24.333 24.333 0 0 1 112.791 35.724 Q 112.015 35.421 111.49 35.141 A 7.217 7.217 0 0 1 111.486 35.139 L 110.721 34.782 L 112.608 30.498 L 113.271 30.855 A 10.622 10.622 0 0 0 113.818 31.168 Q 114.317 31.435 114.954 31.722 A 21.041 21.041 0 0 0 116.552 32.361 A 24.387 24.387 0 0 0 117.147 32.564 Q 118.227 32.916 119.134 32.944 A 5.036 5.036 0 0 0 119.289 32.946 A 7.162 7.162 0 0 0 120.22 32.89 Q 121.318 32.745 121.941 32.232 A 2.292 2.292 0 0 0 122.8 30.561 A 3.009 3.009 0 0 0 122.808 30.345 A 3.558 3.558 0 0 0 122.06 28.165 A 4.609 4.609 0 0 0 121.864 27.923 A 5.173 5.173 0 0 0 120.858 27.036 Q 120.358 26.693 119.728 26.403 A 10.57 10.57 0 0 0 119.034 26.112 A 24.387 24.387 0 0 1 116.847 25.173 Q 114.667 24.098 113.485 22.84 A 6.874 6.874 0 0 1 113.399 22.746 A 6.488 6.488 0 0 1 111.827 19.464 A 9.117 9.117 0 0 1 111.69 17.85 Q 111.69 16.422 112.353 15.122 Q 113.016 13.821 114.164 12.827 A 8.126 8.126 0 0 1 116.221 11.537 A 9.676 9.676 0 0 1 116.892 11.271 A 9.877 9.877 0 0 1 119.622 10.73 A 11.566 11.566 0 0 1 120.309 10.71 Q 121.788 10.71 123.216 11.016 Q 124.644 11.322 125.766 11.73 A 30.416 30.416 0 0 1 127.344 12.324 A 25.019 25.019 0 0 1 128.214 12.699 Z" id="5"/></g></svg>