<svg width="199.001" height="68.701" viewBox="0 0 199.001 68.701" xmlns="http://www.w3.org/2000/svg"><g id="svgGroup" stroke-linecap="round" fill-rule="evenodd" font-size="9pt" stroke="#ffffff" stroke-width="0" fill="#ffffff" style="stroke:#ffffff;stroke-width:0;fill:#ffffff"><path d="M 96.1 25.6 L 103.1 1.6 L 110.4 1.6 L 117.9 25.7 L 129.1 62.1 A 11038.754 11038.754 0 0 1 131.656 50.232 Q 135.2 33.825 137 25.8 L 142.6 0.6 L 148.8 0.6 L 133.5 68 L 125 68 L 118.3 46.7 L 106.9 9.7 Q 103.991 20.266 99.264 36.342 A 3464.8 3464.8 0 0 1 96.2 46.7 L 89.9 68 L 81.4 68 L 63.9 0.6 L 70.4 0.6 L 76.7 25.6 L 85.8 61.7 Q 92.5 37.8 96.1 25.6 Z M 195.1 3 L 195.1 9.9 A 16.427 16.427 0 0 0 192.902 8.683 Q 191.116 7.854 188.8 7.2 A 29.038 29.038 0 0 0 183.297 6.187 A 25.539 25.539 0 0 0 181.2 6.1 Q 175.858 6.1 172.232 8.103 A 12.785 12.785 0 0 0 170.5 9.25 A 9.984 9.984 0 0 0 166.548 16.487 A 12.704 12.704 0 0 0 166.5 17.6 A 11.861 11.861 0 0 0 166.779 20.225 A 9.57 9.57 0 0 0 167.55 22.4 Q 168.502 24.304 170.644 25.919 A 15.917 15.917 0 0 0 171.1 26.25 A 54.663 54.663 0 0 0 172.866 27.439 Q 174.287 28.353 175.45 28.95 Q 177.3 29.9 181.1 31.5 A 333.536 333.536 0 0 1 182.744 32.21 Q 184.329 32.899 185.463 33.416 A 77.613 77.613 0 0 1 186.4 33.85 Q 188.2 34.7 191 36.5 A 26.565 26.565 0 0 1 192.838 37.788 Q 193.672 38.43 194.331 39.066 A 12.117 12.117 0 0 1 195.25 40.05 A 14.259 14.259 0 0 1 196.523 41.876 Q 197.23 43.068 197.85 44.55 A 14.992 14.992 0 0 1 198.945 49.183 A 17.968 17.968 0 0 1 199 50.6 A 20.921 20.921 0 0 1 198.303 56.16 A 14.772 14.772 0 0 1 193.1 64.05 Q 187.2 68.7 178 68.7 A 40.955 40.955 0 0 1 169.635 67.888 A 29.656 29.656 0 0 1 160.3 64.3 L 160.3 57.4 A 20.087 20.087 0 0 0 163.467 59.366 Q 165.062 60.172 166.962 60.838 A 36.582 36.582 0 0 0 168.05 61.2 Q 172.8 62.7 177.7 62.7 Q 184.8 62.7 188.75 59.6 Q 192.7 56.5 192.7 50.7 A 10.513 10.513 0 0 0 192.166 47.282 A 8.911 8.911 0 0 0 189.7 43.55 A 21.114 21.114 0 0 0 187.133 41.565 Q 185.732 40.632 183.998 39.729 A 50.037 50.037 0 0 0 181 38.3 A 17.256 17.256 0 0 0 180.559 38.09 Q 179.832 37.752 178.425 37.146 A 259.019 259.019 0 0 0 177.5 36.75 Q 175.014 35.691 173.884 35.184 A 48.887 48.887 0 0 1 173.7 35.1 A 30.876 30.876 0 0 1 173.075 34.807 Q 172.077 34.326 170.47 33.489 A 199.163 199.163 0 0 1 170.3 33.4 A 34.919 34.919 0 0 1 169.105 32.749 Q 167.965 32.096 167.252 31.546 A 7.676 7.676 0 0 1 166.95 31.3 Q 166.011 30.495 164.631 29.21 A 147.264 147.264 0 0 1 164.3 28.9 A 13.032 13.032 0 0 1 163.153 27.688 Q 162.417 26.794 162 25.9 Q 161.3 24.4 160.7 22.35 A 15.181 15.181 0 0 1 160.11 18.589 A 17.274 17.274 0 0 1 160.1 18 A 18.971 18.971 0 0 1 160.958 12.153 A 15.086 15.086 0 0 1 166.2 4.75 Q 172.3 0 181.1 0 Q 189.5 0 195.1 3 Z M 56.1 68 L 49.4 68 L 43 49.3 L 13.2 49.3 L 6.7 68 L 0 68 L 23.8 0.6 L 32.8 0.6 L 56.1 68 Z M 16.6 39.6 L 15.1 43.8 L 41.2 43.8 L 39.7 39.5 L 28.3 5.8 A 141.729 141.729 0 0 1 27.833 7.204 Q 25.837 13.119 17.741 36.33 A 20428.683 20428.683 0 0 1 16.6 39.6 Z"/></g></svg>