<svg width="148.104" height="48.093" viewBox="0 0 148.104 48.093" xmlns="http://www.w3.org/2000/svg"><g id="svgGroup" stroke-linecap="round" fill-rule="evenodd" font-size="9pt" stroke="#ffffff" stroke-width="0mm" fill="#ffffff" style="stroke:#ffffff;stroke-width:0mm;fill:#ffffff"><path d="M 0 36.72 L 0 2.193 A 18.932 18.932 0 0 0 0.166 2.192 Q 0.58 2.189 1.555 2.169 A 460.892 460.892 0 0 0 1.632 2.168 A 122.365 122.365 0 0 1 2.981 2.149 Q 3.696 2.142 4.488 2.142 Q 6.069 2.142 7.65 2.117 Q 9.064 2.094 10.03 2.091 A 88.909 88.909 0 0 1 10.251 2.091 A 25.635 25.635 0 0 1 13.538 2.287 Q 17.393 2.787 19.482 4.565 A 8.067 8.067 0 0 1 22.228 9.525 A 11.904 11.904 0 0 1 22.389 11.526 A 10.063 10.063 0 0 1 21.874 14.785 A 9.036 9.036 0 0 1 20.91 16.779 A 7.102 7.102 0 0 1 18.589 18.994 Q 17.498 19.66 16.065 20.094 A 8.501 8.501 0 0 1 18.109 21.743 A 10.133 10.133 0 0 1 18.615 22.338 Q 19.653 23.659 20.648 25.527 A 31.133 31.133 0 0 1 20.808 25.832 Q 21.808 27.76 22.852 30.266 A 83.101 83.101 0 0 1 23.001 30.626 Q 24.105 33.311 25.555 36.613 A 379.152 379.152 0 0 0 25.602 36.72 L 19.023 36.72 A 497.754 497.754 0 0 0 17.783 33.863 Q 17.292 32.742 16.844 31.735 A 257.447 257.447 0 0 0 15.988 29.835 Q 14.688 26.979 13.464 25.194 A 11.164 11.164 0 0 0 12.481 23.947 Q 11.914 23.331 11.313 22.901 A 6.007 6.007 0 0 0 10.837 22.593 A 5.969 5.969 0 0 0 8.687 21.858 A 7.779 7.779 0 0 0 7.548 21.777 L 6.069 21.777 L 6.069 36.72 L 0 36.72 Z M 6.069 6.426 L 6.069 17.34 L 9.996 17.34 Q 12.852 17.34 14.408 16.065 A 4.096 4.096 0 0 0 15.803 13.766 A 6.408 6.408 0 0 0 15.963 12.291 Q 15.963 11.169 15.657 10.098 Q 15.351 9.027 14.612 8.211 Q 13.872 7.395 12.623 6.911 Q 11.651 6.534 10.295 6.45 A 13.117 13.117 0 0 0 9.486 6.426 L 6.069 6.426 Z" id="0"/><path d="M 46.563 31.11 L 48.093 34.731 A 21.099 21.099 0 0 1 45.989 35.64 A 23.995 23.995 0 0 1 45.237 35.904 Q 43.911 36.363 42.177 36.72 Q 40.443 37.077 38.505 37.077 A 16.419 16.419 0 0 1 36.245 36.93 Q 34.698 36.715 33.456 36.185 A 9.119 9.119 0 0 1 31.041 34.695 A 8.266 8.266 0 0 1 30.039 33.66 Q 28.713 32.028 28.101 29.733 Q 27.489 27.438 27.489 24.633 Q 27.489 21.216 28.433 18.615 A 13.757 13.757 0 0 1 29.678 16.022 A 11.226 11.226 0 0 1 31.033 14.255 Q 32.691 12.495 34.935 11.603 A 12.791 12.791 0 0 1 39.135 10.724 A 14.785 14.785 0 0 1 39.78 10.71 A 15.668 15.668 0 0 1 41.5 10.799 Q 42.335 10.892 43.053 11.08 A 8.281 8.281 0 0 1 43.682 11.271 A 8.475 8.475 0 0 1 45.059 11.887 A 6.306 6.306 0 0 1 46.308 12.801 Q 47.328 13.77 47.813 15.096 Q 48.297 16.422 48.297 17.952 A 6.535 6.535 0 0 1 47.344 21.335 A 7.797 7.797 0 0 1 47.277 21.446 A 8.601 8.601 0 0 1 45.604 23.402 A 11.175 11.175 0 0 1 44.344 24.353 Q 42.432 25.602 39.729 26.342 Q 37.026 27.081 33.66 27.132 A 13.084 13.084 0 0 0 34.026 28.954 A 11.736 11.736 0 0 0 34.145 29.351 A 5.753 5.753 0 0 0 34.796 30.749 A 5.216 5.216 0 0 0 35.114 31.187 A 4.282 4.282 0 0 0 36.402 32.252 A 5.175 5.175 0 0 0 36.771 32.436 Q 37.612 32.814 38.799 32.881 A 9.34 9.34 0 0 0 39.321 32.895 Q 40.443 32.895 41.718 32.64 A 21.323 21.323 0 0 0 43.16 32.301 A 17.241 17.241 0 0 0 44.064 32.028 Q 45.339 31.62 46.563 31.11 Z M 39.321 14.688 Q 37.638 14.688 36.542 15.479 Q 35.445 16.269 34.782 17.519 A 9.123 9.123 0 0 0 34.027 19.473 A 10.921 10.921 0 0 0 33.839 20.324 Q 33.558 21.879 33.507 23.46 Q 35.955 23.358 37.664 22.823 A 12.326 12.326 0 0 0 38.935 22.35 Q 39.559 22.076 40.065 21.755 A 6.51 6.51 0 0 0 40.443 21.497 Q 41.514 20.706 41.999 19.788 A 4.305 4.305 0 0 0 42.377 18.813 A 3.572 3.572 0 0 0 42.483 17.952 A 4.099 4.099 0 0 0 42.361 16.925 A 2.952 2.952 0 0 0 41.616 15.581 A 2.898 2.898 0 0 0 39.888 14.726 A 4.066 4.066 0 0 0 39.321 14.688 Z" id="1"/><path d="M 73.644 12.393 L 73.644 24.429 Q 73.644 26.71 73.856 28.438 A 18.621 18.621 0 0 0 74.026 29.555 A 33.169 33.169 0 0 0 74.299 30.881 Q 74.567 32.058 74.868 32.895 A 13.549 13.549 0 0 0 75.266 33.869 Q 75.483 34.343 75.713 34.729 A 5.935 5.935 0 0 0 76.092 35.292 L 71.553 37.128 A 7.831 7.831 0 0 1 70.764 36.2 A 9.668 9.668 0 0 1 70.329 35.547 A 10.163 10.163 0 0 1 69.937 34.77 Q 69.753 34.364 69.578 33.9 A 17.709 17.709 0 0 1 69.462 33.584 Q 69.054 32.436 68.952 30.855 Q 68.085 33.915 66.173 35.471 Q 64.26 37.026 60.996 37.026 A 10.831 10.831 0 0 1 58.955 36.843 A 7.968 7.968 0 0 1 56.84 36.134 Q 55.08 35.241 53.907 33.584 Q 52.734 31.926 52.173 29.58 A 20.035 20.035 0 0 1 51.719 26.78 A 25.885 25.885 0 0 1 51.612 24.378 A 16.61 16.61 0 0 1 51.996 20.749 A 14.409 14.409 0 0 1 52.505 18.998 A 13.364 13.364 0 0 1 54.026 15.985 A 11.81 11.81 0 0 1 55.003 14.739 Q 56.61 12.954 58.854 11.934 A 11.488 11.488 0 0 1 62.804 10.95 A 13.683 13.683 0 0 1 63.801 10.914 A 22.482 22.482 0 0 1 66.168 11.043 A 25.765 25.765 0 0 1 66.989 11.144 Q 68.646 11.373 70.074 11.628 A 69.281 69.281 0 0 1 71.084 11.816 Q 71.578 11.912 72.007 12.004 A 33.113 33.113 0 0 1 72.497 12.113 A 106.215 106.215 0 0 1 72.84 12.192 Q 73.428 12.33 73.6 12.38 A 1.14 1.14 0 0 1 73.644 12.393 Z M 67.83 22.899 L 67.83 15.555 A 8.096 8.096 0 0 0 67.543 15.475 Q 67.065 15.351 66.3 15.198 A 11.594 11.594 0 0 0 65.447 15.059 Q 64.923 14.994 64.464 14.994 A 9.319 9.319 0 0 0 63.134 15.084 Q 62.435 15.184 61.854 15.399 A 4.753 4.753 0 0 0 61.276 15.657 Q 60.027 16.32 59.262 17.493 A 6.912 6.912 0 0 0 58.515 19.048 A 9.04 9.04 0 0 0 58.191 20.298 A 17.657 17.657 0 0 0 57.936 22.344 A 22.298 22.298 0 0 0 57.885 23.868 Q 57.885 25.653 57.987 27.285 Q 58.089 28.917 58.523 30.192 Q 58.956 31.467 59.772 32.207 A 2.759 2.759 0 0 0 61.011 32.842 Q 61.449 32.946 61.965 32.946 A 3.591 3.591 0 0 0 64.108 32.234 A 4.555 4.555 0 0 0 64.311 32.079 A 7.143 7.143 0 0 0 65.54 30.786 A 9.147 9.147 0 0 0 66.172 29.81 A 11.413 11.413 0 0 0 67.021 27.897 A 14.286 14.286 0 0 0 67.396 26.597 Q 67.83 24.786 67.83 22.899 Z" id="2"/><path d="M 97.512 14.178 L 94.248 17.289 A 12.545 12.545 0 0 0 93.379 16.394 A 10.082 10.082 0 0 0 92.692 15.81 Q 91.996 15.271 90.884 15.207 A 5.348 5.348 0 0 0 90.576 15.198 A 6.058 6.058 0 0 0 89.793 15.252 Q 89.354 15.309 88.868 15.428 Q 87.949 15.651 87.151 16.503 A 5.331 5.331 0 0 0 87.108 16.55 A 4.723 4.723 0 0 0 86.513 17.375 Q 86.083 18.119 85.757 19.176 A 9.997 9.997 0 0 0 85.452 20.509 Q 85.223 21.913 85.221 23.838 A 32.848 32.848 0 0 0 85.221 23.868 A 27.662 27.662 0 0 0 85.273 25.627 Q 85.384 27.36 85.729 28.545 A 7.891 7.891 0 0 0 85.756 28.637 A 10.706 10.706 0 0 0 86.161 29.753 Q 86.404 30.317 86.691 30.768 A 5.033 5.033 0 0 0 87.134 31.365 Q 87.975 32.334 88.944 32.615 Q 89.913 32.895 90.831 32.895 A 8.786 8.786 0 0 0 92.025 32.811 A 9.989 9.989 0 0 0 92.31 32.768 Q 93.075 32.64 93.789 32.462 A 49.501 49.501 0 0 0 94.38 32.31 Q 94.648 32.24 94.884 32.174 A 27.054 27.054 0 0 0 95.039 32.13 A 18.154 18.154 0 0 0 95.289 32.057 Q 95.638 31.952 95.829 31.875 L 97.257 35.547 A 1.383 1.383 0 0 0 97.186 35.573 Q 97.004 35.646 96.569 35.853 Q 96.045 36.103 95.155 36.352 A 17.522 17.522 0 0 1 95.115 36.363 A 18.324 18.324 0 0 1 94.376 36.551 Q 93.965 36.647 93.5 36.739 A 34.526 34.526 0 0 1 92.922 36.848 Q 91.647 37.077 90.066 37.077 A 16.419 16.419 0 0 1 87.806 36.93 Q 86.259 36.715 85.017 36.185 A 9.24 9.24 0 0 1 82.442 34.564 A 8.528 8.528 0 0 1 81.574 33.66 A 9.96 9.96 0 0 1 79.975 30.906 A 12.205 12.205 0 0 1 79.586 29.733 A 17.23 17.23 0 0 1 79.053 26.828 A 22.131 22.131 0 0 1 78.948 24.633 A 21.695 21.695 0 0 1 79.144 21.646 A 15.927 15.927 0 0 1 79.84 18.666 A 14.02 14.02 0 0 1 80.973 16.157 A 11.151 11.151 0 0 1 82.314 14.306 Q 83.895 12.546 86.037 11.628 Q 88.179 10.71 90.627 10.71 Q 92.824 10.71 94.4 11.481 A 6.272 6.272 0 0 1 94.682 11.628 A 8.558 8.558 0 0 1 97.42 14.052 A 9.887 9.887 0 0 1 97.512 14.178 Z" id="3"/><path d="M 98.583 15.453 L 98.583 11.322 L 103.173 11.322 L 104.193 5.355 L 108.987 4.284 L 108.987 11.322 L 115.26 11.322 L 114.546 15.453 L 108.987 15.453 L 108.987 30.549 A 3.818 3.818 0 0 0 109.026 31.119 Q 109.136 31.843 109.553 32.162 A 1.093 1.093 0 0 0 109.701 32.258 A 3.262 3.262 0 0 0 111.147 32.638 A 3.851 3.851 0 0 0 111.282 32.64 Q 111.996 32.64 112.71 32.538 A 12.405 12.405 0 0 0 113.376 32.425 Q 113.7 32.361 113.985 32.283 Q 114.648 32.13 115.26 31.926 L 116.229 35.751 L 115.77 35.904 Q 115.387 36.075 114.701 36.263 A 18.152 18.152 0 0 1 114.419 36.338 Q 113.652 36.535 112.659 36.694 A 29.185 29.185 0 0 1 112.328 36.746 A 16.054 16.054 0 0 1 110.907 36.89 A 20.545 20.545 0 0 1 109.701 36.924 A 11.678 11.678 0 0 1 108.167 36.827 A 9.412 9.412 0 0 1 107.075 36.618 Q 105.876 36.312 105.009 35.624 A 4.629 4.629 0 0 1 103.704 33.964 A 5.399 5.399 0 0 1 103.658 33.864 A 5.041 5.041 0 0 1 103.318 32.789 Q 103.211 32.266 103.183 31.661 A 9.617 9.617 0 0 1 103.173 31.212 L 103.173 15.453 L 98.583 15.453 Z" id="4"/><path d="M 119.799 36.057 L 119.799 11.322 L 125.613 11.322 L 125.613 35.496 A 18.987 18.987 0 0 1 125.498 37.648 Q 125.376 38.72 125.122 39.628 A 9.411 9.411 0 0 1 124.797 40.596 A 13.009 13.009 0 0 1 123.808 42.584 A 10.259 10.259 0 0 1 122.731 44.039 Q 121.482 45.441 119.927 46.385 A 43.76 43.76 0 0 1 117.224 47.899 A 39.92 39.92 0 0 1 116.841 48.093 L 114.495 44.217 A 15.466 15.466 0 0 0 115.796 43.472 Q 116.784 42.837 117.453 42.152 Q 118.524 41.055 119.034 39.959 A 8.026 8.026 0 0 0 119.468 38.815 A 6.277 6.277 0 0 0 119.671 37.842 A 19.152 19.152 0 0 0 119.749 37.113 Q 119.799 36.535 119.799 36.057 Z M 123.792 0.115 A 4.4 4.4 0 0 0 122.757 0 A 5.699 5.699 0 0 0 122.596 0.002 Q 122.04 0.018 121.575 0.144 A 2.855 2.855 0 0 0 120.13 1.02 A 3.474 3.474 0 0 0 119.385 2.429 A 4.594 4.594 0 0 0 119.238 3.621 A 4.512 4.512 0 0 0 119.246 3.885 A 3.501 3.501 0 0 0 120.105 6.044 A 2.794 2.794 0 0 0 121.594 6.926 A 4.276 4.276 0 0 0 122.604 7.038 Q 124.389 7.038 125.282 6.018 A 3.475 3.475 0 0 0 126.003 4.709 A 4.318 4.318 0 0 0 126.174 3.468 A 4.602 4.602 0 0 0 126.118 2.738 A 3.325 3.325 0 0 0 125.281 0.969 A 2.898 2.898 0 0 0 123.792 0.115 Z" id="5"/><path d="M 147.645 12.699 L 145.911 16.677 Q 144.891 16.218 143.871 15.861 A 23.388 23.388 0 0 0 142.839 15.525 A 29.851 29.851 0 0 0 141.959 15.275 A 8.01 8.01 0 0 0 140.084 14.997 A 7.447 7.447 0 0 0 139.893 14.994 A 4.104 4.104 0 0 0 138.882 15.113 A 3.221 3.221 0 0 0 137.878 15.555 A 1.813 1.813 0 0 0 137.062 16.869 A 2.643 2.643 0 0 0 137.037 17.238 A 3.76 3.76 0 0 0 138.303 20.036 Q 139.352 21.038 141.27 21.777 A 27.768 27.768 0 0 1 142.952 22.49 A 21.928 21.928 0 0 1 144.126 23.078 A 9.564 9.564 0 0 1 145.538 24.002 A 7.966 7.966 0 0 1 146.293 24.684 Q 147.186 25.602 147.645 26.801 A 6.602 6.602 0 0 1 147.989 28.108 Q 148.104 28.815 148.104 29.631 Q 148.104 31.059 147.518 32.436 Q 146.931 33.813 145.784 34.884 A 8.102 8.102 0 0 1 143.894 36.188 A 9.955 9.955 0 0 1 142.979 36.593 A 9.431 9.431 0 0 1 140.797 37.133 A 12.196 12.196 0 0 1 139.23 37.23 Q 137.547 37.23 135.915 36.848 A 32.561 32.561 0 0 1 134.366 36.446 A 24.301 24.301 0 0 1 132.982 36.006 A 24.333 24.333 0 0 1 132.222 35.724 Q 131.446 35.421 130.921 35.141 A 7.217 7.217 0 0 1 130.917 35.139 L 130.152 34.782 L 132.039 30.498 L 132.702 30.855 A 10.622 10.622 0 0 0 133.249 31.168 Q 133.748 31.435 134.385 31.722 A 21.041 21.041 0 0 0 135.983 32.361 A 24.387 24.387 0 0 0 136.578 32.564 Q 137.658 32.916 138.565 32.944 A 5.036 5.036 0 0 0 138.72 32.946 A 7.162 7.162 0 0 0 139.651 32.89 Q 140.749 32.745 141.372 32.232 A 2.292 2.292 0 0 0 142.231 30.561 A 3.009 3.009 0 0 0 142.239 30.345 A 3.558 3.558 0 0 0 141.491 28.165 A 4.609 4.609 0 0 0 141.295 27.923 A 5.173 5.173 0 0 0 140.289 27.036 Q 139.789 26.693 139.159 26.403 A 10.57 10.57 0 0 0 138.465 26.112 A 24.387 24.387 0 0 1 136.278 25.173 Q 134.098 24.098 132.916 22.84 A 6.874 6.874 0 0 1 132.83 22.746 A 6.488 6.488 0 0 1 131.258 19.464 A 9.117 9.117 0 0 1 131.121 17.85 Q 131.121 16.422 131.784 15.122 Q 132.447 13.821 133.595 12.827 A 8.126 8.126 0 0 1 135.652 11.537 A 9.676 9.676 0 0 1 136.323 11.271 A 9.877 9.877 0 0 1 139.053 10.73 A 11.566 11.566 0 0 1 139.74 10.71 Q 141.219 10.71 142.647 11.016 Q 144.075 11.322 145.197 11.73 A 30.416 30.416 0 0 1 146.775 12.324 A 25.019 25.019 0 0 1 147.645 12.699 Z" id="6"/></g></svg>