<svg width="191.25" height="48.093" viewBox="0 0 191.25 48.093" xmlns="http://www.w3.org/2000/svg"><g id="svgGroup" stroke-linecap="round" fill-rule="evenodd" font-size="9pt" stroke="#ffffff" stroke-width="0mm" fill="#ffffff" style="stroke:#ffffff;stroke-width:0mm;fill:#ffffff"><path d="M 0 36.72 L 0 2.193 L 20.502 2.193 L 20.502 6.783 L 6.069 6.783 L 6.069 16.422 L 17.952 16.422 L 17.187 21.063 L 6.069 21.063 L 6.069 32.13 L 21.267 32.13 L 21.267 36.72 L 0 36.72 Z" id="0"/><path d="M 28.866 36.72 L 22.338 36.72 L 30.855 23.256 L 23.409 11.322 L 30.141 11.322 L 33.354 16.575 A 8.796 8.796 0 0 1 33.52 16.865 Q 33.704 17.201 33.942 17.685 A 41.135 41.135 0 0 1 34.17 18.156 L 35.19 20.298 Q 35.802 19.38 36.389 18.462 A 26.67 26.67 0 0 0 37.135 17.224 A 22.779 22.779 0 0 0 37.434 16.677 A 37.655 37.655 0 0 0 38.194 15.213 Q 38.518 14.551 38.768 13.961 A 16.147 16.147 0 0 0 39.194 12.852 A 280.489 280.489 0 0 1 39.315 12.493 Q 39.729 11.277 39.729 11.322 L 45.747 11.322 A 0.001 0.001 0 0 0 45.747 11.321 Q 45.73 11.321 45.192 12.843 A 370.548 370.548 0 0 0 45.135 13.005 A 19.081 19.081 0 0 1 44.663 14.198 Q 44.132 15.43 43.28 17.053 A 70.464 70.464 0 0 1 42.993 17.595 A 28.63 28.63 0 0 1 41.281 20.253 A 31.653 31.653 0 0 1 41.004 20.63 Q 39.882 22.134 38.811 23.307 L 47.073 36.72 L 40.443 36.72 L 36.669 30.141 L 34.68 26.418 L 32.691 30.192 L 28.866 36.72 Z" id="1"/><path d="M 56.661 46.971 L 50.847 47.991 L 50.847 23.868 A 38.057 38.057 0 0 0 50.79 21.724 Q 50.695 20.038 50.439 18.743 Q 50.165 17.355 49.868 16.324 A 14.985 14.985 0 0 0 49.572 15.402 A 14.239 14.239 0 0 0 49.137 14.372 Q 48.903 13.876 48.653 13.466 A 7.052 7.052 0 0 0 48.348 13.005 L 52.938 11.169 A 6.01 6.01 0 0 1 53.577 11.93 A 8.065 8.065 0 0 1 54.06 12.699 Q 54.468 13.464 54.876 14.561 Q 55.254 15.575 55.456 16.917 A 17.068 17.068 0 0 1 55.488 17.136 Q 56.228 14.524 57.711 12.99 A 6.912 6.912 0 0 1 58.242 12.495 A 6.287 6.287 0 0 1 60.499 11.309 Q 61.402 11.038 62.479 10.953 A 12.936 12.936 0 0 1 63.495 10.914 A 10.831 10.831 0 0 1 65.536 11.097 A 7.968 7.968 0 0 1 67.651 11.807 Q 69.411 12.699 70.559 14.357 A 10.536 10.536 0 0 1 71.702 16.535 A 13.94 13.94 0 0 1 72.267 18.36 A 20.035 20.035 0 0 1 72.721 21.161 A 25.885 25.885 0 0 1 72.828 23.562 A 17.091 17.091 0 0 1 72.459 27.17 A 14.741 14.741 0 0 1 71.961 28.943 A 12.982 12.982 0 0 1 70.441 31.987 A 11.547 11.547 0 0 1 69.488 33.201 Q 67.881 34.986 65.637 36.006 A 11.432 11.432 0 0 1 61.984 36.962 A 13.916 13.916 0 0 1 60.639 37.026 Q 59.67 37.026 58.676 36.924 Q 57.681 36.822 56.661 36.72 L 56.661 46.971 Z M 56.661 25.041 L 56.661 32.385 A 8.096 8.096 0 0 0 56.948 32.465 Q 57.426 32.589 58.191 32.742 Q 59.211 32.946 59.976 32.946 Q 61.533 32.946 62.662 32.518 A 4.922 4.922 0 0 0 63.189 32.283 Q 64.464 31.62 65.229 30.447 A 6.912 6.912 0 0 0 65.976 28.892 A 9.04 9.04 0 0 0 66.3 27.642 A 17.657 17.657 0 0 0 66.555 25.596 A 22.298 22.298 0 0 0 66.606 24.072 Q 66.606 22.287 66.504 20.655 Q 66.402 19.023 65.969 17.748 Q 65.535 16.473 64.719 15.734 A 2.759 2.759 0 0 0 63.48 15.098 Q 63.042 14.994 62.526 14.994 A 3.591 3.591 0 0 0 60.383 15.706 A 4.555 4.555 0 0 0 60.18 15.861 A 6.946 6.946 0 0 0 59.007 17.088 A 9.066 9.066 0 0 0 58.318 18.156 A 12.177 12.177 0 0 0 57.4 20.288 A 14.66 14.66 0 0 0 57.094 21.369 Q 56.661 23.154 56.661 25.041 Z" id="2"/><path d="M 84.252 22.746 L 84.252 36.72 L 78.438 36.72 L 78.438 23.868 A 38.057 38.057 0 0 0 78.381 21.724 Q 78.286 20.038 78.03 18.743 Q 77.756 17.355 77.459 16.324 A 14.985 14.985 0 0 0 77.163 15.402 A 14.239 14.239 0 0 0 76.728 14.372 Q 76.494 13.876 76.244 13.466 A 7.052 7.052 0 0 0 75.939 13.005 L 80.529 11.169 A 10.541 10.541 0 0 1 80.94 11.709 Q 81.211 12.087 81.498 12.546 Q 81.852 13.165 82.206 13.976 A 21.364 21.364 0 0 1 82.314 14.229 A 9.47 9.47 0 0 1 82.663 15.216 Q 82.842 15.82 82.977 16.524 A 11.323 11.323 0 0 1 83.787 14.686 Q 84.355 13.67 85.09 12.954 A 5.998 5.998 0 0 1 85.935 12.266 Q 87.873 10.965 90.321 10.965 Q 91.494 10.965 92.514 11.246 A 136.184 136.184 0 0 1 92.742 11.308 Q 93.517 11.523 93.484 11.526 A 0.012 0.012 0 0 1 93.483 11.526 L 91.851 17.187 A 0.006 0.006 0 0 0 91.854 17.187 Q 91.871 17.176 91.409 16.971 A 38.561 38.561 0 0 0 91.265 16.907 A 2.593 2.593 0 0 0 90.804 16.759 Q 90.229 16.626 89.352 16.626 A 3.907 3.907 0 0 0 87.946 16.895 A 4.798 4.798 0 0 0 87.516 17.085 Q 86.598 17.544 85.884 18.335 A 6.097 6.097 0 0 0 85.023 19.577 A 7.515 7.515 0 0 0 84.711 20.247 A 6.158 6.158 0 0 0 84.297 21.91 A 7.602 7.602 0 0 0 84.252 22.746 Z" id="3"/><path d="M 114.342 31.11 L 115.872 34.731 A 21.099 21.099 0 0 1 113.768 35.64 A 23.995 23.995 0 0 1 113.016 35.904 Q 111.69 36.363 109.956 36.72 Q 108.222 37.077 106.284 37.077 A 16.419 16.419 0 0 1 104.024 36.93 Q 102.477 36.715 101.235 36.185 A 9.119 9.119 0 0 1 98.82 34.695 A 8.266 8.266 0 0 1 97.818 33.66 Q 96.492 32.028 95.88 29.733 Q 95.268 27.438 95.268 24.633 Q 95.268 21.216 96.212 18.615 A 13.757 13.757 0 0 1 97.457 16.022 A 11.226 11.226 0 0 1 98.812 14.255 Q 100.47 12.495 102.714 11.603 A 12.791 12.791 0 0 1 106.914 10.724 A 14.785 14.785 0 0 1 107.559 10.71 A 15.668 15.668 0 0 1 109.279 10.799 Q 110.114 10.892 110.832 11.08 A 8.281 8.281 0 0 1 111.461 11.271 A 8.475 8.475 0 0 1 112.838 11.887 A 6.306 6.306 0 0 1 114.087 12.801 Q 115.107 13.77 115.592 15.096 Q 116.076 16.422 116.076 17.952 A 6.535 6.535 0 0 1 115.123 21.335 A 7.797 7.797 0 0 1 115.056 21.446 A 8.601 8.601 0 0 1 113.383 23.402 A 11.175 11.175 0 0 1 112.123 24.353 Q 110.211 25.602 107.508 26.342 Q 104.805 27.081 101.439 27.132 A 13.084 13.084 0 0 0 101.805 28.954 A 11.736 11.736 0 0 0 101.924 29.351 A 5.753 5.753 0 0 0 102.575 30.749 A 5.216 5.216 0 0 0 102.892 31.187 A 4.282 4.282 0 0 0 104.181 32.252 A 5.175 5.175 0 0 0 104.55 32.436 Q 105.391 32.814 106.578 32.881 A 9.34 9.34 0 0 0 107.1 32.895 Q 108.222 32.895 109.497 32.64 A 21.323 21.323 0 0 0 110.939 32.301 A 17.241 17.241 0 0 0 111.843 32.028 Q 113.118 31.62 114.342 31.11 Z M 107.1 14.688 Q 105.417 14.688 104.321 15.479 Q 103.224 16.269 102.561 17.519 A 9.123 9.123 0 0 0 101.806 19.473 A 10.921 10.921 0 0 0 101.617 20.324 Q 101.337 21.879 101.286 23.46 Q 103.734 23.358 105.443 22.823 A 12.326 12.326 0 0 0 106.714 22.35 Q 107.338 22.076 107.844 21.755 A 6.51 6.51 0 0 0 108.222 21.497 Q 109.293 20.706 109.778 19.788 A 4.305 4.305 0 0 0 110.156 18.813 A 3.572 3.572 0 0 0 110.262 17.952 A 4.099 4.099 0 0 0 110.14 16.925 A 2.952 2.952 0 0 0 109.395 15.581 A 2.898 2.898 0 0 0 107.667 14.726 A 4.066 4.066 0 0 0 107.1 14.688 Z" id="4"/><path d="M 136.323 12.699 L 134.589 16.677 Q 133.569 16.218 132.549 15.861 A 23.388 23.388 0 0 0 131.517 15.525 A 29.851 29.851 0 0 0 130.636 15.275 A 8.01 8.01 0 0 0 128.762 14.997 A 7.447 7.447 0 0 0 128.571 14.994 A 4.104 4.104 0 0 0 127.56 15.113 A 3.221 3.221 0 0 0 126.556 15.555 A 1.813 1.813 0 0 0 125.74 16.869 A 2.643 2.643 0 0 0 125.715 17.238 A 3.76 3.76 0 0 0 126.981 20.036 Q 128.03 21.038 129.948 21.777 A 27.768 27.768 0 0 1 131.63 22.49 A 21.928 21.928 0 0 1 132.804 23.078 A 9.564 9.564 0 0 1 134.216 24.002 A 7.966 7.966 0 0 1 134.971 24.684 Q 135.864 25.602 136.323 26.801 A 6.602 6.602 0 0 1 136.667 28.108 Q 136.782 28.815 136.782 29.631 Q 136.782 31.059 136.196 32.436 Q 135.609 33.813 134.462 34.884 A 8.102 8.102 0 0 1 132.572 36.188 A 9.955 9.955 0 0 1 131.656 36.593 A 9.431 9.431 0 0 1 129.475 37.133 A 12.196 12.196 0 0 1 127.908 37.23 Q 126.225 37.23 124.593 36.848 A 32.561 32.561 0 0 1 123.044 36.446 A 24.301 24.301 0 0 1 121.66 36.006 A 24.333 24.333 0 0 1 120.9 35.724 Q 120.124 35.421 119.599 35.141 A 7.217 7.217 0 0 1 119.595 35.139 L 118.83 34.782 L 120.717 30.498 L 121.38 30.855 A 10.622 10.622 0 0 0 121.927 31.168 Q 122.426 31.435 123.063 31.722 A 21.041 21.041 0 0 0 124.661 32.361 A 24.387 24.387 0 0 0 125.256 32.564 Q 126.336 32.916 127.243 32.944 A 5.036 5.036 0 0 0 127.398 32.946 A 7.162 7.162 0 0 0 128.329 32.89 Q 129.427 32.745 130.05 32.232 A 2.292 2.292 0 0 0 130.909 30.561 A 3.009 3.009 0 0 0 130.917 30.345 A 3.558 3.558 0 0 0 130.169 28.165 A 4.609 4.609 0 0 0 129.973 27.923 A 5.173 5.173 0 0 0 128.967 27.036 Q 128.467 26.693 127.837 26.403 A 10.57 10.57 0 0 0 127.143 26.112 A 24.387 24.387 0 0 1 124.956 25.173 Q 122.776 24.098 121.594 22.84 A 6.874 6.874 0 0 1 121.508 22.746 A 6.488 6.488 0 0 1 119.936 19.464 A 9.117 9.117 0 0 1 119.799 17.85 Q 119.799 16.422 120.462 15.122 Q 121.125 13.821 122.273 12.827 A 8.126 8.126 0 0 1 124.33 11.537 A 9.676 9.676 0 0 1 125.001 11.271 A 9.877 9.877 0 0 1 127.731 10.73 A 11.566 11.566 0 0 1 128.418 10.71 Q 129.897 10.71 131.325 11.016 Q 132.753 11.322 133.875 11.73 A 30.416 30.416 0 0 1 135.453 12.324 A 25.019 25.019 0 0 1 136.323 12.699 Z" id="5"/><path d="M 157.335 12.699 L 155.601 16.677 Q 154.581 16.218 153.561 15.861 A 23.388 23.388 0 0 0 152.529 15.525 A 29.851 29.851 0 0 0 151.648 15.275 A 8.01 8.01 0 0 0 149.774 14.997 A 7.447 7.447 0 0 0 149.583 14.994 A 4.104 4.104 0 0 0 148.572 15.113 A 3.221 3.221 0 0 0 147.568 15.555 A 1.813 1.813 0 0 0 146.752 16.869 A 2.643 2.643 0 0 0 146.727 17.238 A 3.76 3.76 0 0 0 147.993 20.036 Q 149.042 21.038 150.96 21.777 A 27.768 27.768 0 0 1 152.642 22.49 A 21.928 21.928 0 0 1 153.816 23.078 A 9.564 9.564 0 0 1 155.228 24.002 A 7.966 7.966 0 0 1 155.983 24.684 Q 156.876 25.602 157.335 26.801 A 6.602 6.602 0 0 1 157.679 28.108 Q 157.794 28.815 157.794 29.631 Q 157.794 31.059 157.208 32.436 Q 156.621 33.813 155.474 34.884 A 8.102 8.102 0 0 1 153.584 36.188 A 9.955 9.955 0 0 1 152.668 36.593 A 9.431 9.431 0 0 1 150.487 37.133 A 12.196 12.196 0 0 1 148.92 37.23 Q 147.237 37.23 145.605 36.848 A 32.561 32.561 0 0 1 144.056 36.446 A 24.301 24.301 0 0 1 142.672 36.006 A 24.333 24.333 0 0 1 141.912 35.724 Q 141.136 35.421 140.611 35.141 A 7.217 7.217 0 0 1 140.607 35.139 L 139.842 34.782 L 141.729 30.498 L 142.392 30.855 A 10.622 10.622 0 0 0 142.939 31.168 Q 143.438 31.435 144.075 31.722 A 21.041 21.041 0 0 0 145.673 32.361 A 24.387 24.387 0 0 0 146.268 32.564 Q 147.348 32.916 148.255 32.944 A 5.036 5.036 0 0 0 148.41 32.946 A 7.162 7.162 0 0 0 149.341 32.89 Q 150.439 32.745 151.062 32.232 A 2.292 2.292 0 0 0 151.921 30.561 A 3.009 3.009 0 0 0 151.929 30.345 A 3.558 3.558 0 0 0 151.181 28.165 A 4.609 4.609 0 0 0 150.985 27.923 A 5.173 5.173 0 0 0 149.979 27.036 Q 149.479 26.693 148.849 26.403 A 10.57 10.57 0 0 0 148.155 26.112 A 24.387 24.387 0 0 1 145.968 25.173 Q 143.788 24.098 142.606 22.84 A 6.874 6.874 0 0 1 142.52 22.746 A 6.488 6.488 0 0 1 140.948 19.464 A 9.117 9.117 0 0 1 140.811 17.85 Q 140.811 16.422 141.474 15.122 Q 142.137 13.821 143.285 12.827 A 8.126 8.126 0 0 1 145.342 11.537 A 9.676 9.676 0 0 1 146.013 11.271 A 9.877 9.877 0 0 1 148.743 10.73 A 11.566 11.566 0 0 1 149.43 10.71 Q 150.909 10.71 152.337 11.016 Q 153.765 11.322 154.887 11.73 A 30.416 30.416 0 0 1 156.465 12.324 A 25.019 25.019 0 0 1 157.335 12.699 Z" id="6"/><path d="M 162.945 36.057 L 162.945 11.322 L 168.759 11.322 L 168.759 35.496 A 18.987 18.987 0 0 1 168.644 37.648 Q 168.522 38.72 168.268 39.628 A 9.411 9.411 0 0 1 167.943 40.596 A 13.009 13.009 0 0 1 166.954 42.584 A 10.259 10.259 0 0 1 165.877 44.039 Q 164.628 45.441 163.073 46.385 A 43.76 43.76 0 0 1 160.37 47.899 A 39.92 39.92 0 0 1 159.987 48.093 L 157.641 44.217 A 15.466 15.466 0 0 0 158.942 43.472 Q 159.93 42.837 160.599 42.152 Q 161.67 41.055 162.18 39.959 A 8.026 8.026 0 0 0 162.614 38.815 A 6.277 6.277 0 0 0 162.817 37.842 A 19.152 19.152 0 0 0 162.895 37.113 Q 162.945 36.535 162.945 36.057 Z M 166.938 0.115 A 4.4 4.4 0 0 0 165.903 0 A 5.699 5.699 0 0 0 165.742 0.002 Q 165.186 0.018 164.721 0.144 A 2.855 2.855 0 0 0 163.276 1.02 A 3.474 3.474 0 0 0 162.531 2.429 A 4.594 4.594 0 0 0 162.384 3.621 A 4.512 4.512 0 0 0 162.392 3.885 A 3.501 3.501 0 0 0 163.251 6.044 A 2.794 2.794 0 0 0 164.74 6.926 A 4.276 4.276 0 0 0 165.75 7.038 Q 167.535 7.038 168.428 6.018 A 3.475 3.475 0 0 0 169.149 4.709 A 4.318 4.318 0 0 0 169.32 3.468 A 4.602 4.602 0 0 0 169.264 2.738 A 3.325 3.325 0 0 0 168.427 0.969 A 2.898 2.898 0 0 0 166.938 0.115 Z" id="7"/><path d="M 190.791 12.699 L 189.057 16.677 Q 188.037 16.218 187.017 15.861 A 23.388 23.388 0 0 0 185.985 15.525 A 29.851 29.851 0 0 0 185.104 15.275 A 8.01 8.01 0 0 0 183.23 14.997 A 7.447 7.447 0 0 0 183.039 14.994 A 4.104 4.104 0 0 0 182.028 15.113 A 3.221 3.221 0 0 0 181.024 15.555 A 1.813 1.813 0 0 0 180.208 16.869 A 2.643 2.643 0 0 0 180.183 17.238 A 3.76 3.76 0 0 0 181.449 20.036 Q 182.498 21.038 184.416 21.777 A 27.768 27.768 0 0 1 186.098 22.49 A 21.928 21.928 0 0 1 187.272 23.078 A 9.564 9.564 0 0 1 188.684 24.002 A 7.966 7.966 0 0 1 189.439 24.684 Q 190.332 25.602 190.791 26.801 A 6.602 6.602 0 0 1 191.135 28.108 Q 191.25 28.815 191.25 29.631 Q 191.25 31.059 190.664 32.436 Q 190.077 33.813 188.93 34.884 A 8.102 8.102 0 0 1 187.04 36.188 A 9.955 9.955 0 0 1 186.124 36.593 A 9.431 9.431 0 0 1 183.943 37.133 A 12.196 12.196 0 0 1 182.376 37.23 Q 180.693 37.23 179.061 36.848 A 32.561 32.561 0 0 1 177.512 36.446 A 24.301 24.301 0 0 1 176.128 36.006 A 24.333 24.333 0 0 1 175.368 35.724 Q 174.592 35.421 174.067 35.141 A 7.217 7.217 0 0 1 174.063 35.139 L 173.298 34.782 L 175.185 30.498 L 175.848 30.855 A 10.622 10.622 0 0 0 176.395 31.168 Q 176.894 31.435 177.531 31.722 A 21.041 21.041 0 0 0 179.129 32.361 A 24.387 24.387 0 0 0 179.724 32.564 Q 180.804 32.916 181.711 32.944 A 5.036 5.036 0 0 0 181.866 32.946 A 7.162 7.162 0 0 0 182.797 32.89 Q 183.895 32.745 184.518 32.232 A 2.292 2.292 0 0 0 185.377 30.561 A 3.009 3.009 0 0 0 185.385 30.345 A 3.558 3.558 0 0 0 184.637 28.165 A 4.609 4.609 0 0 0 184.441 27.923 A 5.173 5.173 0 0 0 183.435 27.036 Q 182.935 26.693 182.305 26.403 A 10.57 10.57 0 0 0 181.611 26.112 A 24.387 24.387 0 0 1 179.424 25.173 Q 177.244 24.098 176.062 22.84 A 6.874 6.874 0 0 1 175.976 22.746 A 6.488 6.488 0 0 1 174.404 19.464 A 9.117 9.117 0 0 1 174.267 17.85 Q 174.267 16.422 174.93 15.122 Q 175.593 13.821 176.741 12.827 A 8.126 8.126 0 0 1 178.798 11.537 A 9.676 9.676 0 0 1 179.469 11.271 A 9.877 9.877 0 0 1 182.199 10.73 A 11.566 11.566 0 0 1 182.886 10.71 Q 184.365 10.71 185.793 11.016 Q 187.221 11.322 188.343 11.73 A 30.416 30.416 0 0 1 189.921 12.324 A 25.019 25.019 0 0 1 190.791 12.699 Z" id="8"/></g></svg>