<svg width="125.205" height="48.093" viewBox="0 0 125.205 48.093" xmlns="http://www.w3.org/2000/svg"><g id="svgGroup" stroke-linecap="round" fill-rule="evenodd" font-size="9pt" stroke="#ffffff" stroke-width="0mm" fill="#ffffff" style="stroke:#ffffff;stroke-width:0mm;fill:#ffffff"><path d="M 20.553 20.247 L 20.4 2.193 L 26.469 2.193 L 26.469 36.771 L 21.42 36.771 L 9.792 18.615 Q 8.823 17.136 7.676 15.275 Q 6.528 13.413 5.508 11.832 Q 5.661 13.464 5.789 15.249 A 49.714 49.714 0 0 1 5.908 17.841 A 43.271 43.271 0 0 1 5.916 18.666 L 6.069 36.72 L 0 36.72 L 0 2.091 L 4.743 2.091 L 16.728 20.043 A 88.761 88.761 0 0 1 18.272 22.362 A 101.024 101.024 0 0 1 18.793 23.18 A 152.255 152.255 0 0 0 20.604 25.983 A 138.254 138.254 0 0 0 20.859 26.367 Q 20.757 24.735 20.655 23.078 Q 20.577 21.809 20.559 20.824 A 31.079 31.079 0 0 1 20.553 20.247 Z" id="0"/><path d="M 50.898 31.11 L 52.428 34.731 A 21.099 21.099 0 0 1 50.324 35.64 A 23.995 23.995 0 0 1 49.572 35.904 Q 48.246 36.363 46.512 36.72 Q 44.778 37.077 42.84 37.077 A 16.419 16.419 0 0 1 40.58 36.93 Q 39.033 36.715 37.791 36.185 A 9.119 9.119 0 0 1 35.376 34.695 A 8.266 8.266 0 0 1 34.374 33.66 Q 33.048 32.028 32.436 29.733 Q 31.824 27.438 31.824 24.633 Q 31.824 21.216 32.768 18.615 A 13.757 13.757 0 0 1 34.013 16.022 A 11.226 11.226 0 0 1 35.368 14.255 Q 37.026 12.495 39.27 11.603 A 12.791 12.791 0 0 1 43.47 10.724 A 14.785 14.785 0 0 1 44.115 10.71 A 15.668 15.668 0 0 1 45.835 10.799 Q 46.67 10.892 47.388 11.08 A 8.281 8.281 0 0 1 48.017 11.271 A 8.475 8.475 0 0 1 49.394 11.887 A 6.306 6.306 0 0 1 50.643 12.801 Q 51.663 13.77 52.148 15.096 Q 52.632 16.422 52.632 17.952 A 6.535 6.535 0 0 1 51.679 21.335 A 7.797 7.797 0 0 1 51.612 21.446 A 8.601 8.601 0 0 1 49.939 23.402 A 11.175 11.175 0 0 1 48.679 24.353 Q 46.767 25.602 44.064 26.342 Q 41.361 27.081 37.995 27.132 A 13.084 13.084 0 0 0 38.361 28.954 A 11.736 11.736 0 0 0 38.48 29.351 A 5.753 5.753 0 0 0 39.131 30.749 A 5.216 5.216 0 0 0 39.448 31.187 A 4.282 4.282 0 0 0 40.737 32.252 A 5.175 5.175 0 0 0 41.106 32.436 Q 41.947 32.814 43.134 32.881 A 9.34 9.34 0 0 0 43.656 32.895 Q 44.778 32.895 46.053 32.64 A 21.323 21.323 0 0 0 47.495 32.301 A 17.241 17.241 0 0 0 48.399 32.028 Q 49.674 31.62 50.898 31.11 Z M 43.656 14.688 Q 41.973 14.688 40.877 15.479 Q 39.78 16.269 39.117 17.519 A 9.123 9.123 0 0 0 38.362 19.473 A 10.921 10.921 0 0 0 38.173 20.324 Q 37.893 21.879 37.842 23.46 Q 40.29 23.358 41.999 22.823 A 12.326 12.326 0 0 0 43.27 22.35 Q 43.894 22.076 44.4 21.755 A 6.51 6.51 0 0 0 44.778 21.497 Q 45.849 20.706 46.334 19.788 A 4.305 4.305 0 0 0 46.712 18.813 A 3.572 3.572 0 0 0 46.818 17.952 A 4.099 4.099 0 0 0 46.696 16.925 A 2.952 2.952 0 0 0 45.951 15.581 A 2.898 2.898 0 0 0 44.223 14.726 A 4.066 4.066 0 0 0 43.656 14.688 Z" id="1"/><path d="M 72.879 12.699 L 71.145 16.677 Q 70.125 16.218 69.105 15.861 A 23.388 23.388 0 0 0 68.073 15.525 A 29.851 29.851 0 0 0 67.192 15.275 A 8.01 8.01 0 0 0 65.318 14.997 A 7.447 7.447 0 0 0 65.127 14.994 A 4.104 4.104 0 0 0 64.116 15.113 A 3.221 3.221 0 0 0 63.112 15.555 A 1.813 1.813 0 0 0 62.296 16.869 A 2.643 2.643 0 0 0 62.271 17.238 A 3.76 3.76 0 0 0 63.537 20.036 Q 64.586 21.038 66.504 21.777 A 27.768 27.768 0 0 1 68.186 22.49 A 21.928 21.928 0 0 1 69.36 23.078 A 9.564 9.564 0 0 1 70.772 24.002 A 7.966 7.966 0 0 1 71.527 24.684 Q 72.42 25.602 72.879 26.801 A 6.602 6.602 0 0 1 73.223 28.108 Q 73.338 28.815 73.338 29.631 Q 73.338 31.059 72.752 32.436 Q 72.165 33.813 71.018 34.884 A 8.102 8.102 0 0 1 69.128 36.188 A 9.955 9.955 0 0 1 68.212 36.593 A 9.431 9.431 0 0 1 66.031 37.133 A 12.196 12.196 0 0 1 64.464 37.23 Q 62.781 37.23 61.149 36.848 A 32.561 32.561 0 0 1 59.6 36.446 A 24.301 24.301 0 0 1 58.216 36.006 A 24.333 24.333 0 0 1 57.456 35.724 Q 56.68 35.421 56.155 35.141 A 7.217 7.217 0 0 1 56.151 35.139 L 55.386 34.782 L 57.273 30.498 L 57.936 30.855 A 10.622 10.622 0 0 0 58.483 31.168 Q 58.982 31.435 59.619 31.722 A 21.041 21.041 0 0 0 61.217 32.361 A 24.387 24.387 0 0 0 61.812 32.564 Q 62.892 32.916 63.799 32.944 A 5.036 5.036 0 0 0 63.954 32.946 A 7.162 7.162 0 0 0 64.885 32.89 Q 65.983 32.745 66.606 32.232 A 2.292 2.292 0 0 0 67.465 30.561 A 3.009 3.009 0 0 0 67.473 30.345 A 3.558 3.558 0 0 0 66.725 28.165 A 4.609 4.609 0 0 0 66.529 27.923 A 5.173 5.173 0 0 0 65.523 27.036 Q 65.023 26.693 64.393 26.403 A 10.57 10.57 0 0 0 63.699 26.112 A 24.387 24.387 0 0 1 61.512 25.173 Q 59.332 24.098 58.15 22.84 A 6.874 6.874 0 0 1 58.064 22.746 A 6.488 6.488 0 0 1 56.492 19.464 A 9.117 9.117 0 0 1 56.355 17.85 Q 56.355 16.422 57.018 15.122 Q 57.681 13.821 58.829 12.827 A 8.126 8.126 0 0 1 60.886 11.537 A 9.676 9.676 0 0 1 61.557 11.271 A 9.877 9.877 0 0 1 64.287 10.73 A 11.566 11.566 0 0 1 64.974 10.71 Q 66.453 10.71 67.881 11.016 Q 69.309 11.322 70.431 11.73 A 30.416 30.416 0 0 1 72.009 12.324 A 25.019 25.019 0 0 1 72.879 12.699 Z" id="2"/><path d="M 75.684 15.453 L 75.684 11.322 L 80.274 11.322 L 81.294 5.355 L 86.088 4.284 L 86.088 11.322 L 92.361 11.322 L 91.647 15.453 L 86.088 15.453 L 86.088 30.549 A 3.818 3.818 0 0 0 86.127 31.119 Q 86.237 31.843 86.654 32.162 A 1.093 1.093 0 0 0 86.802 32.258 A 3.262 3.262 0 0 0 88.248 32.638 A 3.851 3.851 0 0 0 88.383 32.64 Q 89.097 32.64 89.811 32.538 A 12.405 12.405 0 0 0 90.477 32.425 Q 90.801 32.361 91.086 32.283 Q 91.749 32.13 92.361 31.926 L 93.33 35.751 L 92.871 35.904 Q 92.488 36.075 91.802 36.263 A 18.152 18.152 0 0 1 91.52 36.338 Q 90.753 36.535 89.76 36.694 A 29.185 29.185 0 0 1 89.428 36.746 A 16.054 16.054 0 0 1 88.008 36.89 A 20.545 20.545 0 0 1 86.802 36.924 A 11.678 11.678 0 0 1 85.268 36.827 A 9.412 9.412 0 0 1 84.176 36.618 Q 82.977 36.312 82.11 35.624 A 4.629 4.629 0 0 1 80.805 33.964 A 5.399 5.399 0 0 1 80.759 33.864 A 5.041 5.041 0 0 1 80.419 32.789 Q 80.312 32.266 80.284 31.661 A 9.617 9.617 0 0 1 80.274 31.212 L 80.274 15.453 L 75.684 15.453 Z" id="3"/><path d="M 96.9 36.057 L 96.9 11.322 L 102.714 11.322 L 102.714 35.496 A 18.987 18.987 0 0 1 102.599 37.648 Q 102.477 38.72 102.223 39.628 A 9.411 9.411 0 0 1 101.898 40.596 A 13.009 13.009 0 0 1 100.909 42.584 A 10.259 10.259 0 0 1 99.832 44.039 Q 98.583 45.441 97.028 46.385 A 43.76 43.76 0 0 1 94.325 47.899 A 39.92 39.92 0 0 1 93.942 48.093 L 91.596 44.217 A 15.466 15.466 0 0 0 92.897 43.472 Q 93.885 42.837 94.554 42.152 Q 95.625 41.055 96.135 39.959 A 8.026 8.026 0 0 0 96.569 38.815 A 6.277 6.277 0 0 0 96.772 37.842 A 19.152 19.152 0 0 0 96.85 37.113 Q 96.9 36.535 96.9 36.057 Z M 100.893 0.115 A 4.4 4.4 0 0 0 99.858 0 A 5.699 5.699 0 0 0 99.697 0.002 Q 99.141 0.018 98.676 0.144 A 2.855 2.855 0 0 0 97.231 1.02 A 3.474 3.474 0 0 0 96.486 2.429 A 4.594 4.594 0 0 0 96.339 3.621 A 4.512 4.512 0 0 0 96.347 3.885 A 3.501 3.501 0 0 0 97.206 6.044 A 2.794 2.794 0 0 0 98.695 6.926 A 4.276 4.276 0 0 0 99.705 7.038 Q 101.49 7.038 102.383 6.018 A 3.475 3.475 0 0 0 103.104 4.709 A 4.318 4.318 0 0 0 103.275 3.468 A 4.602 4.602 0 0 0 103.219 2.738 A 3.325 3.325 0 0 0 102.382 0.969 A 2.898 2.898 0 0 0 100.893 0.115 Z" id="4"/><path d="M 124.746 12.699 L 123.012 16.677 Q 121.992 16.218 120.972 15.861 A 23.388 23.388 0 0 0 119.94 15.525 A 29.851 29.851 0 0 0 119.059 15.275 A 8.01 8.01 0 0 0 117.185 14.997 A 7.447 7.447 0 0 0 116.994 14.994 A 4.104 4.104 0 0 0 115.983 15.113 A 3.221 3.221 0 0 0 114.979 15.555 A 1.813 1.813 0 0 0 114.163 16.869 A 2.643 2.643 0 0 0 114.138 17.238 A 3.76 3.76 0 0 0 115.404 20.036 Q 116.453 21.038 118.371 21.777 A 27.768 27.768 0 0 1 120.053 22.49 A 21.928 21.928 0 0 1 121.227 23.078 A 9.564 9.564 0 0 1 122.639 24.002 A 7.966 7.966 0 0 1 123.394 24.684 Q 124.287 25.602 124.746 26.801 A 6.602 6.602 0 0 1 125.09 28.108 Q 125.205 28.815 125.205 29.631 Q 125.205 31.059 124.619 32.436 Q 124.032 33.813 122.885 34.884 A 8.102 8.102 0 0 1 120.995 36.188 A 9.955 9.955 0 0 1 120.079 36.593 A 9.431 9.431 0 0 1 117.898 37.133 A 12.196 12.196 0 0 1 116.331 37.23 Q 114.648 37.23 113.016 36.848 A 32.561 32.561 0 0 1 111.467 36.446 A 24.301 24.301 0 0 1 110.083 36.006 A 24.333 24.333 0 0 1 109.323 35.724 Q 108.547 35.421 108.022 35.141 A 7.217 7.217 0 0 1 108.018 35.139 L 107.253 34.782 L 109.14 30.498 L 109.803 30.855 A 10.622 10.622 0 0 0 110.35 31.168 Q 110.849 31.435 111.486 31.722 A 21.041 21.041 0 0 0 113.084 32.361 A 24.387 24.387 0 0 0 113.679 32.564 Q 114.759 32.916 115.666 32.944 A 5.036 5.036 0 0 0 115.821 32.946 A 7.162 7.162 0 0 0 116.752 32.89 Q 117.85 32.745 118.473 32.232 A 2.292 2.292 0 0 0 119.332 30.561 A 3.009 3.009 0 0 0 119.34 30.345 A 3.558 3.558 0 0 0 118.592 28.165 A 4.609 4.609 0 0 0 118.396 27.923 A 5.173 5.173 0 0 0 117.39 27.036 Q 116.89 26.693 116.26 26.403 A 10.57 10.57 0 0 0 115.566 26.112 A 24.387 24.387 0 0 1 113.379 25.173 Q 111.199 24.098 110.017 22.84 A 6.874 6.874 0 0 1 109.931 22.746 A 6.488 6.488 0 0 1 108.359 19.464 A 9.117 9.117 0 0 1 108.222 17.85 Q 108.222 16.422 108.885 15.122 Q 109.548 13.821 110.696 12.827 A 8.126 8.126 0 0 1 112.753 11.537 A 9.676 9.676 0 0 1 113.424 11.271 A 9.877 9.877 0 0 1 116.154 10.73 A 11.566 11.566 0 0 1 116.841 10.71 Q 118.32 10.71 119.748 11.016 Q 121.176 11.322 122.298 11.73 A 30.416 30.416 0 0 1 123.876 12.324 A 25.019 25.019 0 0 1 124.746 12.699 Z" id="5"/></g></svg>