<svg width="263.211" height="46.054" viewBox="0 0 263.211 46.054" xmlns="http://www.w3.org/2000/svg"><g id="svgGroup" stroke-linecap="round" fill-rule="evenodd" font-size="9pt" stroke="#ffffff" stroke-width="0mm" fill="#ffffff" style="stroke:#ffffff;stroke-width:0mm;fill:#ffffff"><path d="M 0 34.986 L 0 0.459 A 18.932 18.932 0 0 0 0.166 0.458 Q 0.58 0.455 1.555 0.435 A 460.892 460.892 0 0 0 1.632 0.434 A 122.365 122.365 0 0 1 2.981 0.415 Q 3.696 0.408 4.488 0.408 Q 6.069 0.408 7.65 0.383 Q 9.064 0.36 10.03 0.357 A 88.909 88.909 0 0 1 10.251 0.357 Q 14.054 0.357 16.638 1.396 A 8.842 8.842 0 0 1 19.431 3.137 Q 22.389 5.916 22.389 10.761 A 11.762 11.762 0 0 1 22.054 13.61 A 10.248 10.248 0 0 1 21.573 15.071 Q 20.757 17.034 19.151 18.462 A 10.392 10.392 0 0 1 16.745 20.046 A 13.273 13.273 0 0 1 15.172 20.681 Q 12.949 21.422 10.031 21.468 A 24.709 24.709 0 0 1 9.639 21.471 L 6.069 21.471 L 6.069 34.986 L 0 34.986 Z M 6.069 4.743 L 6.069 16.932 L 9.996 16.932 A 9.636 9.636 0 0 0 11.658 16.799 Q 12.536 16.645 13.22 16.312 A 3.995 3.995 0 0 0 14.586 15.249 A 5.976 5.976 0 0 0 15.822 12.537 A 8.365 8.365 0 0 0 15.963 10.965 Q 15.963 9.792 15.657 8.67 Q 15.351 7.548 14.612 6.656 A 4.746 4.746 0 0 0 13.438 5.648 A 6.187 6.187 0 0 0 12.623 5.228 A 6.028 6.028 0 0 0 11.431 4.866 Q 10.562 4.692 9.486 4.692 L 7.523 4.692 A 23.712 23.712 0 0 0 6.924 4.699 Q 6.629 4.707 6.368 4.722 A 12.239 12.239 0 0 0 6.069 4.743 Z" id="0"/><path d="M 40.327 9.282 A 15.609 15.609 0 0 0 37.128 8.976 A 14.003 14.003 0 0 0 34.884 9.149 A 10.514 10.514 0 0 0 32.028 10.022 Q 29.835 11.067 28.382 12.878 Q 26.928 14.688 26.214 17.162 A 17.349 17.349 0 0 0 25.775 19.098 A 20.757 20.757 0 0 0 25.5 22.542 A 24.638 24.638 0 0 0 25.64 25.229 A 18.383 18.383 0 0 0 26.138 27.948 A 12.517 12.517 0 0 0 26.608 29.377 A 10.031 10.031 0 0 0 28.152 32.028 A 8.685 8.685 0 0 0 28.694 32.632 A 9.019 9.019 0 0 0 31.646 34.604 A 9.513 9.513 0 0 0 31.949 34.726 Q 33.026 35.137 34.297 35.328 A 15.909 15.909 0 0 0 36.669 35.496 A 14.003 14.003 0 0 0 38.913 35.324 A 10.514 10.514 0 0 0 41.769 34.451 Q 43.962 33.405 45.416 31.595 Q 46.869 29.784 47.583 27.311 A 17.358 17.358 0 0 0 47.975 25.646 A 20.166 20.166 0 0 0 48.297 21.981 Q 48.297 18.828 47.581 16.377 A 11.888 11.888 0 0 0 45.645 12.444 Q 43.78 10.006 40.327 9.282 Z M 34.463 13.754 A 3.173 3.173 0 0 0 34.196 13.923 A 4.173 4.173 0 0 0 33.03 15.186 A 5.314 5.314 0 0 0 32.716 15.785 A 8.56 8.56 0 0 0 32.244 17.162 A 11.779 11.779 0 0 0 31.977 18.59 A 25.505 25.505 0 0 0 31.802 20.687 A 30.799 30.799 0 0 0 31.773 22.032 A 27.781 27.781 0 0 0 31.881 24.53 A 23.738 23.738 0 0 0 32.003 25.602 A 11.248 11.248 0 0 0 32.315 27.131 A 8.299 8.299 0 0 0 32.844 28.535 A 5.305 5.305 0 0 0 33.71 29.815 A 4.644 4.644 0 0 0 34.501 30.498 Q 35.472 31.161 36.947 31.208 A 7.178 7.178 0 0 0 37.179 31.212 Q 38.456 31.212 39.334 30.718 A 3.173 3.173 0 0 0 39.602 30.549 A 4.173 4.173 0 0 0 40.767 29.287 A 5.314 5.314 0 0 0 41.081 28.688 A 8.682 8.682 0 0 0 41.567 27.262 A 11.673 11.673 0 0 0 41.82 25.908 A 24.676 24.676 0 0 0 41.994 23.86 A 30.502 30.502 0 0 0 42.024 22.491 A 27.781 27.781 0 0 0 41.916 19.993 A 23.738 23.738 0 0 0 41.795 18.921 Q 41.565 17.238 40.953 15.963 A 5.375 5.375 0 0 0 40.154 14.736 A 4.556 4.556 0 0 0 39.295 13.974 Q 38.325 13.312 36.85 13.264 A 7.178 7.178 0 0 0 36.618 13.26 Q 35.341 13.26 34.463 13.754 Z" id="1"/><path d="M 68.799 10.965 L 67.065 14.943 Q 66.045 14.484 65.025 14.127 A 23.388 23.388 0 0 0 63.993 13.791 A 29.851 29.851 0 0 0 63.113 13.541 A 8.01 8.01 0 0 0 61.238 13.263 A 7.447 7.447 0 0 0 61.047 13.26 A 4.104 4.104 0 0 0 60.036 13.379 A 3.221 3.221 0 0 0 59.032 13.821 A 1.813 1.813 0 0 0 58.216 15.135 A 2.643 2.643 0 0 0 58.191 15.504 A 3.76 3.76 0 0 0 59.457 18.302 Q 60.506 19.304 62.424 20.043 A 27.768 27.768 0 0 1 64.106 20.756 A 21.928 21.928 0 0 1 65.28 21.344 A 9.564 9.564 0 0 1 66.692 22.268 A 7.966 7.966 0 0 1 67.447 22.95 Q 68.34 23.868 68.799 25.067 A 6.602 6.602 0 0 1 69.143 26.374 Q 69.258 27.081 69.258 27.897 Q 69.258 29.325 68.672 30.702 Q 68.085 32.079 66.938 33.15 A 8.102 8.102 0 0 1 65.048 34.454 A 9.955 9.955 0 0 1 64.133 34.859 A 9.431 9.431 0 0 1 61.951 35.399 A 12.196 12.196 0 0 1 60.384 35.496 Q 58.701 35.496 57.069 35.114 A 32.561 32.561 0 0 1 55.52 34.712 A 24.301 24.301 0 0 1 54.136 34.272 A 24.333 24.333 0 0 1 53.376 33.99 Q 52.6 33.687 52.075 33.407 A 7.217 7.217 0 0 1 52.071 33.405 L 51.306 33.048 L 53.193 28.764 L 53.856 29.121 A 10.622 10.622 0 0 0 54.403 29.434 Q 54.902 29.701 55.539 29.988 A 21.041 21.041 0 0 0 57.137 30.627 A 24.387 24.387 0 0 0 57.732 30.83 Q 58.812 31.182 59.719 31.21 A 5.036 5.036 0 0 0 59.874 31.212 A 7.162 7.162 0 0 0 60.805 31.156 Q 61.903 31.011 62.526 30.498 A 2.292 2.292 0 0 0 63.385 28.827 A 3.009 3.009 0 0 0 63.393 28.611 A 3.558 3.558 0 0 0 62.645 26.431 A 4.609 4.609 0 0 0 62.449 26.189 A 5.173 5.173 0 0 0 61.443 25.302 Q 60.943 24.959 60.313 24.669 A 10.57 10.57 0 0 0 59.619 24.378 A 24.387 24.387 0 0 1 57.432 23.439 Q 55.252 22.364 54.07 21.106 A 6.874 6.874 0 0 1 53.984 21.012 A 6.488 6.488 0 0 1 52.412 17.731 A 9.117 9.117 0 0 1 52.275 16.116 Q 52.275 14.688 52.938 13.388 Q 53.601 12.087 54.749 11.093 A 8.126 8.126 0 0 1 56.806 9.803 A 9.676 9.676 0 0 1 57.477 9.537 A 9.877 9.877 0 0 1 60.207 8.996 A 11.566 11.566 0 0 1 60.894 8.976 Q 62.373 8.976 63.801 9.282 Q 65.229 9.588 66.351 9.996 A 30.416 30.416 0 0 1 67.929 10.59 A 25.019 25.019 0 0 1 68.799 10.965 Z" id="2"/><path d="M 71.604 13.719 L 71.604 9.588 L 76.194 9.588 L 77.214 3.621 L 82.008 2.55 L 82.008 9.588 L 88.281 9.588 L 87.567 13.719 L 82.008 13.719 L 82.008 28.815 A 3.818 3.818 0 0 0 82.047 29.385 Q 82.157 30.109 82.574 30.428 A 1.093 1.093 0 0 0 82.722 30.524 A 3.262 3.262 0 0 0 84.168 30.904 A 3.851 3.851 0 0 0 84.303 30.906 Q 85.017 30.906 85.731 30.804 A 12.405 12.405 0 0 0 86.397 30.691 Q 86.721 30.627 87.006 30.549 Q 87.669 30.396 88.281 30.192 L 89.25 34.017 L 88.791 34.17 Q 88.408 34.341 87.722 34.529 A 18.152 18.152 0 0 1 87.44 34.604 Q 86.673 34.801 85.68 34.96 A 29.185 29.185 0 0 1 85.349 35.012 A 16.054 16.054 0 0 1 83.928 35.156 A 20.545 20.545 0 0 1 82.722 35.19 A 11.678 11.678 0 0 1 81.188 35.093 A 9.412 9.412 0 0 1 80.096 34.884 Q 78.897 34.578 78.03 33.89 A 4.629 4.629 0 0 1 76.725 32.23 A 5.399 5.399 0 0 1 76.679 32.13 A 5.041 5.041 0 0 1 76.339 31.055 Q 76.232 30.532 76.204 29.927 A 9.617 9.617 0 0 1 76.194 29.478 L 76.194 13.719 L 71.604 13.719 Z" id="3"/><path d="M 95.217 43.911 L 96.645 39.474 Q 97.41 39.78 98.277 40.112 A 31.715 31.715 0 0 0 99.635 40.595 A 36.3 36.3 0 0 0 100.113 40.749 Q 101.082 41.055 102.077 41.259 Q 103.071 41.463 104.04 41.463 A 7.498 7.498 0 0 0 105.594 41.313 Q 106.513 41.118 107.197 40.67 A 3.805 3.805 0 0 0 108.171 39.755 Q 109.395 38.114 109.444 35.557 A 11.211 11.211 0 0 0 109.446 35.343 A 13.422 13.422 0 0 0 108.761 31.168 A 16.004 16.004 0 0 0 108.324 29.988 A 9.312 9.312 0 0 1 107.415 31.96 A 6.923 6.923 0 0 1 105.595 33.941 A 6.663 6.663 0 0 1 103.358 34.975 Q 102.457 35.213 101.398 35.272 A 12.909 12.909 0 0 1 100.674 35.292 A 10.831 10.831 0 0 1 98.633 35.109 A 7.968 7.968 0 0 1 96.518 34.4 Q 94.758 33.507 93.585 31.85 Q 92.412 30.192 91.851 27.846 A 20.035 20.035 0 0 1 91.397 25.046 A 25.885 25.885 0 0 1 91.29 22.644 A 16.61 16.61 0 0 1 91.674 19.015 A 14.409 14.409 0 0 1 92.183 17.264 A 13.364 13.364 0 0 1 93.704 14.251 A 11.81 11.81 0 0 1 94.681 13.005 Q 96.288 11.22 98.532 10.2 A 11.488 11.488 0 0 1 102.482 9.216 A 13.683 13.683 0 0 1 103.479 9.18 Q 104.703 9.18 106.106 9.333 Q 107.508 9.486 108.86 9.716 A 66.179 66.179 0 0 1 110.645 10.043 A 55.856 55.856 0 0 1 111.41 10.2 A 134.148 134.148 0 0 1 112.262 10.384 Q 112.597 10.458 112.901 10.527 A 71.573 71.573 0 0 1 113.475 10.659 L 113.22 24.684 Q 113.185 25.735 113.282 26.665 A 11.257 11.257 0 0 0 113.398 27.489 Q 113.628 28.764 113.934 30.014 Q 114.24 31.263 114.495 32.538 A 12.875 12.875 0 0 1 114.701 34.053 A 16.46 16.46 0 0 1 114.75 35.343 Q 114.75 38.958 113.519 41.341 A 7.81 7.81 0 0 1 111.996 43.401 A 9.199 9.199 0 0 1 107.547 45.74 A 13.558 13.558 0 0 1 104.55 46.053 Q 103.02 46.053 101.49 45.773 A 36.676 36.676 0 0 1 99.754 45.413 A 29.585 29.585 0 0 1 98.66 45.135 Q 97.664 44.862 96.892 44.589 A 15.854 15.854 0 0 1 96.441 44.421 Q 95.649 44.113 95.313 43.957 A 3.674 3.674 0 0 1 95.217 43.911 Z M 107.508 21.573 L 107.508 13.821 A 8.096 8.096 0 0 0 107.221 13.742 Q 106.743 13.617 105.978 13.464 A 11.594 11.594 0 0 0 105.125 13.325 Q 104.601 13.26 104.142 13.26 A 9.319 9.319 0 0 0 102.812 13.35 Q 102.113 13.451 101.532 13.665 A 4.753 4.753 0 0 0 100.954 13.923 Q 99.705 14.586 98.94 15.759 A 6.912 6.912 0 0 0 98.193 17.314 A 9.04 9.04 0 0 0 97.869 18.564 A 17.657 17.657 0 0 0 97.614 20.61 A 22.298 22.298 0 0 0 97.563 22.134 Q 97.563 23.919 97.665 25.551 Q 97.767 27.183 98.201 28.458 Q 98.634 29.733 99.45 30.473 A 2.759 2.759 0 0 0 100.689 31.108 Q 101.127 31.212 101.643 31.212 A 3.555 3.555 0 0 0 103.707 30.548 A 4.493 4.493 0 0 0 103.913 30.396 A 7.063 7.063 0 0 0 105.073 29.238 A 9.273 9.273 0 0 0 105.774 28.229 A 11.034 11.034 0 0 0 106.709 26.24 A 13.483 13.483 0 0 0 107.049 25.143 Q 107.508 23.409 107.508 21.573 Z" id="4"/><path d="M 126.174 21.012 L 126.174 34.986 L 120.36 34.986 L 120.36 22.134 A 38.057 38.057 0 0 0 120.303 19.99 Q 120.208 18.304 119.952 17.009 Q 119.678 15.621 119.381 14.59 A 14.985 14.985 0 0 0 119.085 13.668 A 14.239 14.239 0 0 0 118.65 12.638 Q 118.416 12.142 118.166 11.732 A 7.052 7.052 0 0 0 117.861 11.271 L 122.451 9.435 A 10.541 10.541 0 0 1 122.862 9.975 Q 123.133 10.353 123.42 10.812 Q 123.774 11.431 124.128 12.242 A 21.364 21.364 0 0 1 124.236 12.495 A 9.47 9.47 0 0 1 124.585 13.482 Q 124.764 14.086 124.899 14.79 A 11.323 11.323 0 0 1 125.709 12.952 Q 126.277 11.936 127.012 11.22 A 5.998 5.998 0 0 1 127.857 10.532 Q 129.795 9.231 132.243 9.231 Q 133.416 9.231 134.436 9.512 A 136.184 136.184 0 0 1 134.664 9.575 Q 135.439 9.789 135.406 9.792 A 0.012 0.012 0 0 1 135.405 9.792 L 133.773 15.453 A 0.006 0.006 0 0 0 133.776 15.453 Q 133.793 15.442 133.331 15.237 A 38.561 38.561 0 0 0 133.187 15.173 A 2.593 2.593 0 0 0 132.726 15.025 Q 132.151 14.892 131.274 14.892 A 3.907 3.907 0 0 0 129.868 15.161 A 4.798 4.798 0 0 0 129.438 15.351 Q 128.52 15.81 127.806 16.601 A 6.097 6.097 0 0 0 126.945 17.843 A 7.515 7.515 0 0 0 126.633 18.513 A 6.158 6.158 0 0 0 126.219 20.176 A 7.602 7.602 0 0 0 126.174 21.012 Z" id="5"/><path d="M 156.264 29.376 L 157.794 32.997 A 21.099 21.099 0 0 1 155.69 33.906 A 23.995 23.995 0 0 1 154.938 34.17 Q 153.612 34.629 151.878 34.986 Q 150.144 35.343 148.206 35.343 A 16.419 16.419 0 0 1 145.946 35.196 Q 144.399 34.981 143.157 34.451 A 9.119 9.119 0 0 1 140.742 32.961 A 8.266 8.266 0 0 1 139.74 31.926 Q 138.414 30.294 137.802 27.999 Q 137.19 25.704 137.19 22.899 Q 137.19 19.482 138.134 16.881 A 13.757 13.757 0 0 1 139.379 14.288 A 11.226 11.226 0 0 1 140.734 12.521 Q 142.392 10.761 144.636 9.869 A 12.791 12.791 0 0 1 148.836 8.99 A 14.785 14.785 0 0 1 149.481 8.976 A 15.668 15.668 0 0 1 151.201 9.065 Q 152.036 9.158 152.754 9.346 A 8.281 8.281 0 0 1 153.383 9.537 A 8.475 8.475 0 0 1 154.76 10.153 A 6.306 6.306 0 0 1 156.009 11.067 Q 157.029 12.036 157.514 13.362 Q 157.998 14.688 157.998 16.218 A 6.535 6.535 0 0 1 157.045 19.601 A 7.797 7.797 0 0 1 156.978 19.712 A 8.601 8.601 0 0 1 155.305 21.668 A 11.175 11.175 0 0 1 154.045 22.619 Q 152.133 23.868 149.43 24.608 Q 146.727 25.347 143.361 25.398 A 13.084 13.084 0 0 0 143.727 27.22 A 11.736 11.736 0 0 0 143.846 27.617 A 5.753 5.753 0 0 0 144.497 29.015 A 5.216 5.216 0 0 0 144.815 29.453 A 4.282 4.282 0 0 0 146.103 30.518 A 5.175 5.175 0 0 0 146.472 30.702 Q 147.313 31.081 148.5 31.147 A 9.34 9.34 0 0 0 149.022 31.161 Q 150.144 31.161 151.419 30.906 A 21.323 21.323 0 0 0 152.861 30.567 A 17.241 17.241 0 0 0 153.765 30.294 Q 155.04 29.886 156.264 29.376 Z M 149.022 12.954 Q 147.339 12.954 146.243 13.745 Q 145.146 14.535 144.483 15.785 A 9.123 9.123 0 0 0 143.728 17.739 A 10.921 10.921 0 0 0 143.54 18.59 Q 143.259 20.145 143.208 21.726 Q 145.656 21.624 147.365 21.089 A 12.326 12.326 0 0 0 148.636 20.617 Q 149.26 20.342 149.766 20.021 A 6.51 6.51 0 0 0 150.144 19.763 Q 151.215 18.972 151.7 18.054 A 4.305 4.305 0 0 0 152.078 17.079 A 3.572 3.572 0 0 0 152.184 16.218 A 4.099 4.099 0 0 0 152.062 15.191 A 2.952 2.952 0 0 0 151.317 13.847 A 2.898 2.898 0 0 0 149.589 12.992 A 4.066 4.066 0 0 0 149.022 12.954 Z" id="6"/><path d="M 178.245 10.965 L 176.511 14.943 Q 175.491 14.484 174.471 14.127 A 23.388 23.388 0 0 0 173.439 13.791 A 29.851 29.851 0 0 0 172.559 13.541 A 8.01 8.01 0 0 0 170.684 13.263 A 7.447 7.447 0 0 0 170.493 13.26 A 4.104 4.104 0 0 0 169.482 13.379 A 3.221 3.221 0 0 0 168.478 13.821 A 1.813 1.813 0 0 0 167.662 15.135 A 2.643 2.643 0 0 0 167.637 15.504 A 3.76 3.76 0 0 0 168.903 18.302 Q 169.952 19.304 171.87 20.043 A 27.768 27.768 0 0 1 173.552 20.756 A 21.928 21.928 0 0 1 174.726 21.344 A 9.564 9.564 0 0 1 176.138 22.268 A 7.966 7.966 0 0 1 176.893 22.95 Q 177.786 23.868 178.245 25.067 A 6.602 6.602 0 0 1 178.589 26.374 Q 178.704 27.081 178.704 27.897 Q 178.704 29.325 178.118 30.702 Q 177.531 32.079 176.384 33.15 A 8.102 8.102 0 0 1 174.494 34.454 A 9.955 9.955 0 0 1 173.579 34.859 A 9.431 9.431 0 0 1 171.397 35.399 A 12.196 12.196 0 0 1 169.83 35.496 Q 168.147 35.496 166.515 35.114 A 32.561 32.561 0 0 1 164.966 34.712 A 24.301 24.301 0 0 1 163.582 34.272 A 24.333 24.333 0 0 1 162.822 33.99 Q 162.046 33.687 161.521 33.407 A 7.217 7.217 0 0 1 161.517 33.405 L 160.752 33.048 L 162.639 28.764 L 163.302 29.121 A 10.622 10.622 0 0 0 163.849 29.434 Q 164.348 29.701 164.985 29.988 A 21.041 21.041 0 0 0 166.583 30.627 A 24.387 24.387 0 0 0 167.178 30.83 Q 168.258 31.182 169.165 31.21 A 5.036 5.036 0 0 0 169.32 31.212 A 7.162 7.162 0 0 0 170.251 31.156 Q 171.349 31.011 171.972 30.498 A 2.292 2.292 0 0 0 172.831 28.827 A 3.009 3.009 0 0 0 172.839 28.611 A 3.558 3.558 0 0 0 172.091 26.431 A 4.609 4.609 0 0 0 171.895 26.189 A 5.173 5.173 0 0 0 170.889 25.302 Q 170.389 24.959 169.759 24.669 A 10.57 10.57 0 0 0 169.065 24.378 A 24.387 24.387 0 0 1 166.878 23.439 Q 164.698 22.364 163.516 21.106 A 6.874 6.874 0 0 1 163.43 21.012 A 6.488 6.488 0 0 1 161.858 17.731 A 9.117 9.117 0 0 1 161.721 16.116 Q 161.721 14.688 162.384 13.388 Q 163.047 12.087 164.195 11.093 A 8.126 8.126 0 0 1 166.252 9.803 A 9.676 9.676 0 0 1 166.923 9.537 A 9.877 9.877 0 0 1 169.653 8.996 A 11.566 11.566 0 0 1 170.34 8.976 Q 171.819 8.976 173.247 9.282 Q 174.675 9.588 175.797 9.996 A 30.416 30.416 0 0 1 177.375 10.59 A 25.019 25.019 0 0 1 178.245 10.965 Z" id="7"/><path d="M 204.051 2.703 L 201.552 7.089 L 200.889 6.732 A 14.276 14.276 0 0 0 200.385 6.475 Q 199.858 6.217 199.155 5.916 Q 198.084 5.457 196.809 5.1 A 9.729 9.729 0 0 0 195.255 4.793 A 8.135 8.135 0 0 0 194.361 4.743 A 6.544 6.544 0 0 0 192.696 4.947 A 5.281 5.281 0 0 0 191.174 5.61 A 2.831 2.831 0 0 0 189.866 7.685 A 4.347 4.347 0 0 0 189.822 8.313 A 5.807 5.807 0 0 0 190.085 10.1 A 4.757 4.757 0 0 0 191.301 12.062 Q 192.75 13.485 195.813 14.689 A 27.619 27.619 0 0 0 195.942 14.739 A 36.552 36.552 0 0 1 197.874 15.574 A 27.956 27.956 0 0 1 199.589 16.448 Q 201.195 17.34 202.317 18.513 Q 203.439 19.686 204.026 21.216 A 8.293 8.293 0 0 1 204.446 22.785 Q 204.612 23.75 204.612 24.888 Q 204.612 26.826 203.873 28.713 Q 203.133 30.6 201.68 32.054 A 10.426 10.426 0 0 1 199.234 33.853 A 12.788 12.788 0 0 1 198.084 34.4 A 11.29 11.29 0 0 1 195.464 35.121 A 15.171 15.171 0 0 1 193.137 35.292 Q 191.148 35.292 189.363 34.884 Q 187.578 34.476 186.125 33.941 A 24.726 24.726 0 0 1 184.931 33.467 Q 184.214 33.16 183.626 32.844 A 81.345 81.345 0 0 1 183.136 32.58 Q 182.666 32.323 182.338 32.135 A 17.267 17.267 0 0 1 182.07 31.977 L 184.212 27.285 L 185.13 27.795 Q 185.833 28.186 186.775 28.636 A 49.188 49.188 0 0 0 187.374 28.917 Q 188.7 29.529 190.179 30.039 A 11.545 11.545 0 0 0 191.189 30.34 Q 192.043 30.549 192.729 30.549 A 8.789 8.789 0 0 0 194.213 30.432 Q 195.019 30.294 195.655 29.992 A 3.924 3.924 0 0 0 196.758 29.223 A 4.338 4.338 0 0 0 197.882 27.209 Q 198.084 26.437 198.084 25.5 A 5.962 5.962 0 0 0 198.008 24.525 A 4.341 4.341 0 0 0 197.727 23.537 Q 197.37 22.695 196.707 22.083 Q 196.044 21.471 195.101 20.987 Q 194.157 20.502 192.984 20.043 Q 190.689 19.074 188.879 18.105 A 14.695 14.695 0 0 1 186.964 16.891 A 11.918 11.918 0 0 1 185.793 15.887 Q 184.518 14.637 183.855 13.031 Q 183.255 11.577 183.198 9.602 A 14.586 14.586 0 0 1 183.192 9.18 Q 183.192 7.293 184.008 5.636 Q 184.824 3.978 186.252 2.729 A 10.405 10.405 0 0 1 188.652 1.169 A 12.556 12.556 0 0 1 189.669 0.74 A 11.827 11.827 0 0 1 192.668 0.065 A 14.445 14.445 0 0 1 194.055 0 A 17.41 17.41 0 0 1 196.958 0.236 A 15.803 15.803 0 0 1 197.472 0.332 A 31.231 31.231 0 0 1 199.219 0.737 A 24.557 24.557 0 0 1 200.455 1.097 A 23.18 23.18 0 0 1 201.412 1.425 Q 201.88 1.598 202.286 1.775 A 12.292 12.292 0 0 1 202.75 1.989 A 23.914 23.914 0 0 1 203.186 2.206 Q 203.777 2.509 204.045 2.699 A 2.236 2.236 0 0 1 204.051 2.703 Z" id="8"/><path d="M 237.762 38.25 L 239.853 42.534 Q 237.711 43.962 235.212 44.931 Q 232.713 45.9 229.857 45.9 Q 226.542 45.9 222.896 44.141 A 20.206 20.206 0 0 1 218.718 41.413 A 26.438 26.438 0 0 1 216.036 38.811 L 217.158 35.445 Q 217.77 35.547 218.357 35.624 Q 218.943 35.7 219.504 35.7 A 10.199 10.199 0 0 0 224.298 34.527 A 11.085 11.085 0 0 0 227.55 31.922 A 13.36 13.36 0 0 0 228.199 31.11 Q 229.857 28.866 230.826 25.577 A 22.925 22.925 0 0 0 231.575 21.874 A 31.561 31.561 0 0 0 231.795 18.054 A 34.471 34.471 0 0 0 231.541 13.81 A 31.109 31.109 0 0 0 231.438 13.056 Q 231.081 10.659 230.138 8.798 Q 229.194 6.936 227.537 5.814 A 6.137 6.137 0 0 0 225.597 4.964 Q 224.798 4.76 223.865 4.709 A 11.702 11.702 0 0 0 223.227 4.692 A 8.005 8.005 0 0 0 221.426 4.885 A 5.938 5.938 0 0 0 219.427 5.738 A 8.016 8.016 0 0 0 217.102 8.166 A 9.467 9.467 0 0 0 216.878 8.543 A 12.532 12.532 0 0 0 215.844 10.951 A 15.761 15.761 0 0 0 215.424 12.597 Q 214.965 14.892 214.965 17.442 A 31.209 31.209 0 0 0 215.077 20.178 Q 215.32 22.925 216.086 24.75 A 9.255 9.255 0 0 0 216.113 24.812 A 5.579 5.579 0 0 0 219.295 27.855 A 8.491 8.491 0 0 0 220.575 28.254 L 219.912 32.589 A 12.871 12.871 0 0 1 217.281 32.152 A 9.711 9.711 0 0 1 214.684 31.008 Q 212.517 29.631 211.166 27.54 Q 209.814 25.449 209.202 22.925 Q 208.59 20.4 208.59 17.901 A 27.843 27.843 0 0 1 208.923 13.514 A 22.883 22.883 0 0 1 209.533 10.761 A 17.175 17.175 0 0 1 211.091 7.02 A 14.843 14.843 0 0 1 212.389 5.1 Q 214.302 2.703 217.184 1.352 Q 220.065 0 223.941 0 A 19.992 19.992 0 0 1 226.973 0.218 Q 228.613 0.47 229.993 1.013 A 11.696 11.696 0 0 1 230.495 1.224 Q 233.223 2.448 234.957 4.718 A 13.719 13.719 0 0 1 236.766 7.933 A 17.633 17.633 0 0 1 237.507 10.226 A 26.217 26.217 0 0 1 238.155 14.004 A 34.838 34.838 0 0 1 238.323 17.493 A 32.996 32.996 0 0 1 238.011 22.134 A 25.26 25.26 0 0 1 237.15 26.036 A 25.635 25.635 0 0 1 235.681 29.778 A 20.068 20.068 0 0 1 234.014 32.589 A 17.589 17.589 0 0 1 231.012 35.87 A 15.627 15.627 0 0 1 229.449 37.026 A 15.045 15.045 0 0 1 225.142 38.964 A 14.011 14.011 0 0 1 223.992 39.219 A 8.318 8.318 0 0 0 225.653 40.182 A 7.331 7.331 0 0 0 226.44 40.469 Q 227.715 40.851 229.041 40.851 Q 230.877 40.851 233.019 40.188 Q 235.161 39.525 237.762 38.25 Z" id="9"/><path d="M 244.239 34.986 L 244.239 0.459 L 250.308 0.459 L 250.308 30.396 L 263.211 30.396 L 263.211 34.986 L 244.239 34.986 Z" id="10"/></g></svg>