<svg width="207.571" height="45.697" viewBox="0 0 207.571 45.697" xmlns="http://www.w3.org/2000/svg"><g id="svgGroup" stroke-linecap="round" fill-rule="evenodd" font-size="9pt" stroke="#ffffff" stroke-width="0mm" fill="#ffffff" style="stroke:#ffffff;stroke-width:0mm;fill:#ffffff"><path d="M 36.924 34.63 L 31.161 34.63 L 31.161 18.004 Q 31.161 16.547 30.855 15.504 A 4.757 4.757 0 0 0 30.498 14.612 A 2.223 2.223 0 0 0 28.896 13.427 A 3.507 3.507 0 0 0 28.203 13.363 A 3.801 3.801 0 0 0 26.92 13.593 A 4.927 4.927 0 0 0 26.24 13.898 A 5.507 5.507 0 0 0 25.011 14.81 A 6.978 6.978 0 0 0 24.429 15.454 Q 23.613 16.474 23.103 17.902 A 8.744 8.744 0 0 0 22.648 19.959 A 10.841 10.841 0 0 0 22.593 21.064 L 22.593 34.63 L 16.83 34.63 L 16.83 18.004 Q 16.83 16.547 16.524 15.504 A 4.757 4.757 0 0 0 16.167 14.612 A 2.223 2.223 0 0 0 14.565 13.427 A 3.507 3.507 0 0 0 13.872 13.363 A 3.736 3.736 0 0 0 12.356 13.692 A 4.725 4.725 0 0 0 11.857 13.949 A 5.273 5.273 0 0 0 10.721 14.863 A 6.951 6.951 0 0 0 10.073 15.658 A 8.197 8.197 0 0 0 9.319 16.986 A 11.141 11.141 0 0 0 8.798 18.386 Q 8.313 19.993 8.313 21.982 L 8.313 34.63 L 2.499 34.63 L 2.499 21.778 A 38.057 38.057 0 0 0 2.442 19.633 Q 2.347 17.947 2.091 16.652 Q 1.817 15.264 1.52 14.233 A 14.985 14.985 0 0 0 1.224 13.312 A 14.239 14.239 0 0 0 0.789 12.281 Q 0.555 11.786 0.305 11.376 A 7.052 7.052 0 0 0 0 10.915 L 4.59 9.079 A 7.973 7.973 0 0 1 5.068 9.661 Q 5.305 9.977 5.542 10.348 A 13.4 13.4 0 0 1 5.61 10.456 Q 5.942 11.037 6.275 11.838 A 19.343 19.343 0 0 1 6.426 12.215 A 11.989 11.989 0 0 1 6.826 13.442 A 15.837 15.837 0 0 1 7.089 14.587 Q 8.364 11.527 10.685 10.175 Q 13.005 8.824 15.606 8.824 A 8.213 8.213 0 0 1 17.224 8.973 Q 18.19 9.167 18.937 9.613 A 4.461 4.461 0 0 1 19.66 10.15 A 7.674 7.674 0 0 1 21.425 12.569 A 9.534 9.534 0 0 1 21.828 13.567 A 10.048 10.048 0 0 1 23.157 11.644 A 7.482 7.482 0 0 1 25.373 9.92 Q 27.54 8.824 29.937 8.824 A 10.295 10.295 0 0 1 31.394 8.921 Q 32.156 9.03 32.796 9.261 A 5.565 5.565 0 0 1 33.278 9.461 Q 34.629 10.099 35.42 11.246 A 7.053 7.053 0 0 1 36.222 12.815 A 9.174 9.174 0 0 1 36.567 14 A 14.541 14.541 0 0 1 36.846 15.815 A 19.356 19.356 0 0 1 36.924 17.596 L 36.924 34.63 Z" id="0"/><path d="M 56.596 8.925 A 15.609 15.609 0 0 0 53.397 8.62 A 14.003 14.003 0 0 0 51.153 8.792 A 10.514 10.514 0 0 0 48.297 9.665 Q 46.104 10.711 44.651 12.521 Q 43.197 14.332 42.483 16.805 A 17.349 17.349 0 0 0 42.044 18.742 A 20.757 20.757 0 0 0 41.769 22.186 A 24.638 24.638 0 0 0 41.909 24.872 A 18.383 18.383 0 0 0 42.406 27.592 A 12.517 12.517 0 0 0 42.877 29.02 A 10.031 10.031 0 0 0 44.421 31.672 A 8.685 8.685 0 0 0 44.963 32.275 A 9.019 9.019 0 0 0 47.915 34.247 A 9.513 9.513 0 0 0 48.218 34.369 Q 49.295 34.78 50.566 34.972 A 15.909 15.909 0 0 0 52.938 35.14 A 14.003 14.003 0 0 0 55.182 34.967 A 10.514 10.514 0 0 0 58.038 34.094 Q 60.231 33.049 61.685 31.238 Q 63.138 29.428 63.852 26.954 A 17.358 17.358 0 0 0 64.244 25.29 A 20.166 20.166 0 0 0 64.566 21.625 Q 64.566 18.472 63.85 16.021 A 11.888 11.888 0 0 0 61.914 12.088 Q 60.049 9.649 56.596 8.925 Z M 50.732 13.398 A 3.173 3.173 0 0 0 50.465 13.567 A 4.173 4.173 0 0 0 49.299 14.829 A 5.314 5.314 0 0 0 48.985 15.428 A 8.56 8.56 0 0 0 48.513 16.806 A 11.779 11.779 0 0 0 48.246 18.233 A 25.505 25.505 0 0 0 48.071 20.331 A 30.799 30.799 0 0 0 48.042 21.676 A 27.781 27.781 0 0 0 48.15 24.174 A 23.738 23.738 0 0 0 48.272 25.246 A 11.248 11.248 0 0 0 48.584 26.774 A 8.299 8.299 0 0 0 49.113 28.178 A 5.305 5.305 0 0 0 49.979 29.458 A 4.644 4.644 0 0 0 50.77 30.142 Q 51.741 30.804 53.216 30.852 A 7.178 7.178 0 0 0 53.448 30.856 Q 54.725 30.856 55.603 30.361 A 3.173 3.173 0 0 0 55.87 30.193 A 4.173 4.173 0 0 0 57.036 28.93 A 5.314 5.314 0 0 0 57.35 28.331 A 8.682 8.682 0 0 0 57.836 26.906 A 11.673 11.673 0 0 0 58.089 25.552 A 24.676 24.676 0 0 0 58.263 23.503 A 30.502 30.502 0 0 0 58.293 22.135 A 27.781 27.781 0 0 0 58.185 19.636 A 23.738 23.738 0 0 0 58.063 18.565 Q 57.834 16.882 57.222 15.607 A 5.375 5.375 0 0 0 56.423 14.38 A 4.556 4.556 0 0 0 55.564 13.618 Q 54.594 12.955 53.119 12.907 A 7.178 7.178 0 0 0 52.887 12.904 Q 51.61 12.904 50.732 13.398 Z" id="1"/><path d="M 91.239 34.63 L 85.476 34.63 L 85.476 18.157 A 9.79 9.79 0 0 0 85.386 16.783 Q 85.213 15.568 84.711 14.714 A 2.525 2.525 0 0 0 82.961 13.495 A 4.193 4.193 0 0 0 82.11 13.414 Q 80.937 13.414 79.841 14 A 5.794 5.794 0 0 0 78.441 15.06 A 7.223 7.223 0 0 0 77.877 15.709 Q 77.01 16.831 76.475 18.437 A 10.309 10.309 0 0 0 76.021 20.537 A 13.238 13.238 0 0 0 75.939 22.033 L 75.939 34.63 L 70.125 34.63 L 70.125 21.778 A 38.057 38.057 0 0 0 70.068 19.633 Q 69.973 17.947 69.717 16.652 Q 69.443 15.264 69.146 14.233 A 14.985 14.985 0 0 0 68.85 13.312 A 14.239 14.239 0 0 0 68.415 12.281 Q 68.181 11.786 67.931 11.376 A 7.052 7.052 0 0 0 67.626 10.915 L 72.216 9.079 A 7.973 7.973 0 0 1 72.694 9.661 Q 72.931 9.977 73.168 10.348 A 13.4 13.4 0 0 1 73.236 10.456 Q 73.568 11.037 73.901 11.838 A 19.343 19.343 0 0 1 74.052 12.215 A 11.989 11.989 0 0 1 74.452 13.442 A 15.837 15.837 0 0 1 74.715 14.587 Q 76.041 11.527 78.54 10.175 Q 81.039 8.824 83.793 8.824 A 10.22 10.22 0 0 1 85.934 9.033 Q 88.242 9.528 89.48 11.195 A 8.304 8.304 0 0 1 90.785 13.931 Q 91.111 15.094 91.203 16.479 A 16.9 16.9 0 0 1 91.239 17.596 L 91.239 34.63 Z" id="2"/><path d="M 100.062 43.555 L 101.49 39.118 Q 102.255 39.424 103.122 39.755 A 31.715 31.715 0 0 0 104.48 40.238 A 36.3 36.3 0 0 0 104.958 40.393 Q 105.927 40.699 106.922 40.903 Q 107.916 41.107 108.885 41.107 A 7.498 7.498 0 0 0 110.439 40.956 Q 111.358 40.762 112.042 40.314 A 3.805 3.805 0 0 0 113.016 39.398 Q 114.24 37.758 114.289 35.201 A 11.211 11.211 0 0 0 114.291 34.987 A 13.422 13.422 0 0 0 113.606 30.812 A 16.004 16.004 0 0 0 113.169 29.632 A 9.312 9.312 0 0 1 112.26 31.604 A 6.923 6.923 0 0 1 110.44 33.584 A 6.663 6.663 0 0 1 108.203 34.618 Q 107.302 34.856 106.243 34.916 A 12.909 12.909 0 0 1 105.519 34.936 A 10.831 10.831 0 0 1 103.478 34.752 A 7.968 7.968 0 0 1 101.363 34.043 Q 99.603 33.151 98.43 31.493 Q 97.257 29.836 96.696 27.49 A 20.035 20.035 0 0 1 96.242 24.689 A 25.885 25.885 0 0 1 96.135 22.288 A 16.61 16.61 0 0 1 96.519 18.659 A 14.409 14.409 0 0 1 97.028 16.907 A 13.364 13.364 0 0 1 98.549 13.894 A 11.81 11.81 0 0 1 99.526 12.649 Q 101.133 10.864 103.377 9.844 A 11.488 11.488 0 0 1 107.327 8.859 A 13.683 13.683 0 0 1 108.324 8.824 Q 109.548 8.824 110.95 8.977 Q 112.353 9.13 113.705 9.359 A 66.179 66.179 0 0 1 115.49 9.687 A 55.856 55.856 0 0 1 116.255 9.844 A 134.148 134.148 0 0 1 117.107 10.028 Q 117.442 10.101 117.746 10.17 A 71.573 71.573 0 0 1 118.32 10.303 L 118.065 24.328 Q 118.03 25.378 118.127 26.309 A 11.257 11.257 0 0 0 118.243 27.133 Q 118.473 28.408 118.779 29.657 Q 119.085 30.907 119.34 32.182 A 12.875 12.875 0 0 1 119.546 33.697 A 16.46 16.46 0 0 1 119.595 34.987 Q 119.595 38.601 118.364 40.985 A 7.81 7.81 0 0 1 116.841 43.045 A 9.199 9.199 0 0 1 112.392 45.383 A 13.558 13.558 0 0 1 109.395 45.697 Q 107.865 45.697 106.335 45.416 A 36.676 36.676 0 0 1 104.599 45.056 A 29.585 29.585 0 0 1 103.505 44.779 Q 102.509 44.505 101.737 44.232 A 15.854 15.854 0 0 1 101.286 44.065 Q 100.494 43.757 100.158 43.6 A 3.674 3.674 0 0 1 100.062 43.555 Z M 112.353 21.217 L 112.353 13.465 A 8.096 8.096 0 0 0 112.066 13.385 Q 111.588 13.261 110.823 13.108 A 11.594 11.594 0 0 0 109.97 12.968 Q 109.446 12.904 108.987 12.904 A 9.319 9.319 0 0 0 107.657 12.993 Q 106.958 13.094 106.377 13.309 A 4.753 4.753 0 0 0 105.799 13.567 Q 104.55 14.23 103.785 15.403 A 6.912 6.912 0 0 0 103.038 16.957 A 9.04 9.04 0 0 0 102.714 18.208 A 17.657 17.657 0 0 0 102.459 20.253 A 22.298 22.298 0 0 0 102.408 21.778 Q 102.408 23.563 102.51 25.195 Q 102.612 26.827 103.045 28.102 Q 103.479 29.377 104.295 30.116 A 2.759 2.759 0 0 0 105.534 30.752 Q 105.972 30.856 106.488 30.856 A 3.555 3.555 0 0 0 108.552 30.191 A 4.493 4.493 0 0 0 108.758 30.04 A 7.063 7.063 0 0 0 109.918 28.882 A 9.273 9.273 0 0 0 110.619 27.872 A 11.034 11.034 0 0 0 111.554 25.883 A 13.483 13.483 0 0 0 111.894 24.787 Q 112.353 23.053 112.353 21.217 Z" id="3"/><path d="M 138.043 8.925 A 15.609 15.609 0 0 0 134.844 8.62 A 14.003 14.003 0 0 0 132.6 8.792 A 10.514 10.514 0 0 0 129.744 9.665 Q 127.551 10.711 126.098 12.521 Q 124.644 14.332 123.93 16.805 A 17.349 17.349 0 0 0 123.491 18.742 A 20.757 20.757 0 0 0 123.216 22.186 A 24.638 24.638 0 0 0 123.356 24.872 A 18.383 18.383 0 0 0 123.853 27.592 A 12.517 12.517 0 0 0 124.324 29.02 A 10.031 10.031 0 0 0 125.868 31.672 A 8.685 8.685 0 0 0 126.41 32.275 A 9.019 9.019 0 0 0 129.362 34.247 A 9.513 9.513 0 0 0 129.665 34.369 Q 130.742 34.78 132.013 34.972 A 15.909 15.909 0 0 0 134.385 35.14 A 14.003 14.003 0 0 0 136.629 34.967 A 10.514 10.514 0 0 0 139.485 34.094 Q 141.678 33.049 143.132 31.238 Q 144.585 29.428 145.299 26.954 A 17.358 17.358 0 0 0 145.691 25.29 A 20.166 20.166 0 0 0 146.013 21.625 Q 146.013 18.472 145.297 16.021 A 11.888 11.888 0 0 0 143.361 12.088 Q 141.496 9.649 138.043 8.925 Z M 132.179 13.398 A 3.173 3.173 0 0 0 131.912 13.567 A 4.173 4.173 0 0 0 130.746 14.829 A 5.314 5.314 0 0 0 130.432 15.428 A 8.56 8.56 0 0 0 129.96 16.806 A 11.779 11.779 0 0 0 129.693 18.233 A 25.505 25.505 0 0 0 129.518 20.331 A 30.799 30.799 0 0 0 129.489 21.676 A 27.781 27.781 0 0 0 129.597 24.174 A 23.738 23.738 0 0 0 129.719 25.246 A 11.248 11.248 0 0 0 130.031 26.774 A 8.299 8.299 0 0 0 130.56 28.178 A 5.305 5.305 0 0 0 131.426 29.458 A 4.644 4.644 0 0 0 132.217 30.142 Q 133.188 30.804 134.663 30.852 A 7.178 7.178 0 0 0 134.895 30.856 Q 136.172 30.856 137.05 30.361 A 3.173 3.173 0 0 0 137.317 30.193 A 4.173 4.173 0 0 0 138.483 28.93 A 5.314 5.314 0 0 0 138.797 28.331 A 8.682 8.682 0 0 0 139.283 26.906 A 11.673 11.673 0 0 0 139.536 25.552 A 24.676 24.676 0 0 0 139.71 23.503 A 30.502 30.502 0 0 0 139.74 22.135 A 27.781 27.781 0 0 0 139.632 19.636 A 23.738 23.738 0 0 0 139.51 18.565 Q 139.281 16.882 138.669 15.607 A 5.375 5.375 0 0 0 137.87 14.38 A 4.556 4.556 0 0 0 137.011 13.618 Q 136.041 12.955 134.566 12.907 A 7.178 7.178 0 0 0 134.334 12.904 Q 133.057 12.904 132.179 13.398 Z" id="4"/><path d="M 151.368 34.63 L 151.368 0.103 A 19.326 19.326 0 0 0 151.563 0.101 Q 151.982 0.097 152.898 0.077 Q 153.993 0.053 155.355 0.052 A 168.123 168.123 0 0 1 155.55 0.052 A 187.542 187.542 0 0 0 158.216 0.032 A 207.133 207.133 0 0 0 158.61 0.026 A 227.615 227.615 0 0 1 159.738 0.011 Q 160.631 0.001 161.364 0.001 Q 166.986 0.001 170.721 1.812 A 12.298 12.298 0 0 1 174.216 4.31 A 13.581 13.581 0 0 1 177.32 9.571 Q 178.027 11.698 178.271 14.291 A 30.489 30.489 0 0 1 178.398 17.137 A 27.149 27.149 0 0 1 177.958 22.185 Q 177.026 27.107 174.114 30.193 Q 170.682 33.829 164.141 34.552 A 31.338 31.338 0 0 1 160.701 34.732 Q 159.12 34.732 157.616 34.706 Q 156.111 34.681 154.862 34.681 A 105.001 105.001 0 0 1 153.971 34.677 Q 153.268 34.671 152.694 34.655 Q 151.849 34.632 151.436 34.63 A 15.076 15.076 0 0 0 151.368 34.63 Z M 157.437 4.591 L 157.437 30.142 A 10.422 10.422 0 0 0 157.862 30.171 Q 158.083 30.182 158.34 30.187 A 25.846 25.846 0 0 0 158.89 30.193 L 161.466 30.193 A 14.485 14.485 0 0 0 164.394 29.916 Q 167.563 29.261 169.32 27.056 A 9.989 9.989 0 0 0 170.938 23.998 Q 171.42 22.573 171.638 20.822 A 25.309 25.309 0 0 0 171.819 17.698 A 25.862 25.862 0 0 0 171.653 14.706 A 19.977 19.977 0 0 0 171.233 12.317 A 11.807 11.807 0 0 0 170.331 9.81 A 9.794 9.794 0 0 0 169.294 8.161 A 8.899 8.899 0 0 0 165.892 5.513 A 10.344 10.344 0 0 0 165.826 5.483 A 10.17 10.17 0 0 0 163.635 4.806 Q 162.276 4.54 160.65 4.54 A 95.194 95.194 0 0 0 160.087 4.541 Q 159.292 4.546 158.705 4.564 A 33.479 33.479 0 0 0 158.686 4.565 Q 157.896 4.591 157.437 4.591 Z" id="5"/><path d="M 184.161 34.63 L 184.161 0.103 A 18.932 18.932 0 0 0 184.327 0.102 Q 184.741 0.098 185.716 0.079 A 460.892 460.892 0 0 0 185.793 0.077 A 122.365 122.365 0 0 1 187.142 0.058 Q 187.857 0.052 188.649 0.052 Q 190.23 0.052 191.811 0.026 Q 193.225 0.003 194.191 0.001 A 88.909 88.909 0 0 1 194.412 0.001 A 23.925 23.925 0 0 1 197.754 0.218 Q 199.456 0.459 200.837 0.966 A 9.806 9.806 0 0 1 203.414 2.347 Q 206.499 4.693 206.499 8.977 Q 206.499 11.476 205.122 13.465 A 9.449 9.449 0 0 1 202.488 15.996 A 11.855 11.855 0 0 1 201.297 16.678 A 12.52 12.52 0 0 1 203.62 17.84 A 8.993 8.993 0 0 1 205.963 19.993 Q 207.57 22.135 207.57 24.94 Q 207.57 29.326 204.255 32.003 A 10.41 10.41 0 0 1 201.071 33.712 Q 199.576 34.226 197.733 34.468 A 27.233 27.233 0 0 1 194.208 34.681 L 191.25 34.681 Q 189.669 34.681 188.241 34.655 Q 187.014 34.633 186.031 34.63 A 100.405 100.405 0 0 0 185.716 34.63 L 184.161 34.63 Z M 190.23 19.177 L 190.23 30.295 L 194.616 30.295 A 12.179 12.179 0 0 0 196.389 30.175 Q 198.501 29.863 199.589 28.739 A 5.295 5.295 0 0 0 201.08 25.27 A 6.986 6.986 0 0 0 201.093 24.838 Q 201.093 23.767 200.762 22.747 A 4.521 4.521 0 0 0 199.769 21.072 A 5.338 5.338 0 0 0 199.614 20.911 Q 198.798 20.095 197.447 19.61 A 7.402 7.402 0 0 0 196.235 19.296 Q 195.266 19.126 194.055 19.126 L 191.888 19.126 A 29.614 29.614 0 0 0 191.106 19.135 Q 190.632 19.148 190.23 19.177 Z M 190.23 4.387 L 190.23 14.791 L 194.157 14.791 A 11.011 11.011 0 0 0 195.777 14.68 Q 196.608 14.556 197.266 14.293 A 4.025 4.025 0 0 0 198.747 13.312 A 5.091 5.091 0 0 0 200.123 9.824 A 6.569 6.569 0 0 0 200.124 9.691 Q 200.124 8.722 199.818 7.753 Q 199.512 6.784 198.773 6.019 Q 198.057 5.279 196.865 4.825 A 7.548 7.548 0 0 0 196.783 4.795 A 6.709 6.709 0 0 0 195.663 4.497 Q 195.103 4.396 194.456 4.358 A 13.844 13.844 0 0 0 193.647 4.336 L 191.684 4.336 A 23.712 23.712 0 0 0 191.085 4.343 Q 190.79 4.35 190.529 4.365 A 12.239 12.239 0 0 0 190.23 4.387 Z" id="6"/></g></svg>