<svg width="223.329" height="47.991" viewBox="0 0 223.329 47.991" xmlns="http://www.w3.org/2000/svg"><g id="svgGroup" stroke-linecap="round" fill-rule="evenodd" font-size="9pt" stroke="#ffffff" stroke-width="0mm" fill="#ffffff" style="stroke:#ffffff;stroke-width:0mm;fill:#ffffff"><path d="M 0 2.193 L 24.072 2.193 L 23.307 6.783 L 14.739 6.783 L 14.739 36.72 L 8.721 36.72 L 8.721 6.783 L 0 6.783 L 0 2.193 Z" id="0"/><path d="M 48.96 11.322 L 48.705 26.418 A 17.785 17.785 0 0 0 48.774 28.015 A 13.846 13.846 0 0 0 48.934 29.223 Q 49.164 30.498 49.445 31.748 Q 49.725 32.997 49.98 34.272 A 12.875 12.875 0 0 1 50.186 35.787 A 16.46 16.46 0 0 1 50.235 37.077 Q 50.235 40.692 49.004 43.075 A 7.81 7.81 0 0 1 47.481 45.135 A 9.199 9.199 0 0 1 43.032 47.474 A 13.558 13.558 0 0 1 40.035 47.787 Q 38.505 47.787 36.975 47.507 A 36.676 36.676 0 0 1 35.239 47.147 A 29.585 29.585 0 0 1 34.145 46.869 Q 33.149 46.596 32.377 46.322 A 15.854 15.854 0 0 1 31.926 46.155 Q 31.134 45.847 30.798 45.691 A 3.674 3.674 0 0 1 30.702 45.645 L 32.13 41.208 Q 32.844 41.514 33.737 41.846 Q 34.629 42.177 35.573 42.483 Q 36.516 42.789 37.536 42.993 A 10.298 10.298 0 0 0 39.221 43.192 A 9.324 9.324 0 0 0 39.525 43.197 A 7.498 7.498 0 0 0 41.079 43.047 Q 41.998 42.852 42.682 42.404 A 3.805 3.805 0 0 0 43.656 41.489 Q 44.88 39.848 44.929 37.291 A 11.211 11.211 0 0 0 44.931 37.077 A 12.946 12.946 0 0 0 44.45 33.644 A 16.07 16.07 0 0 0 43.911 32.028 A 9.942 9.942 0 0 1 42.452 34.127 A 7.739 7.739 0 0 1 40.111 35.879 Q 37.74 37.026 35.139 37.026 A 10.877 10.877 0 0 1 33.056 36.841 Q 30.629 36.366 29.402 34.68 A 8.161 8.161 0 0 1 28.182 32.124 Q 27.693 30.438 27.693 28.254 L 27.693 11.322 L 33.507 11.322 L 33.507 28.101 Q 33.507 29.53 33.847 30.55 A 4.275 4.275 0 0 0 34.272 31.467 A 2.48 2.48 0 0 0 35.83 32.572 Q 36.27 32.684 36.802 32.691 A 5.416 5.416 0 0 0 36.873 32.691 Q 37.784 32.691 38.808 32.195 A 6.693 6.693 0 0 0 38.939 32.13 A 6.739 6.739 0 0 0 40.644 30.875 A 7.839 7.839 0 0 0 40.927 30.575 A 7.902 7.902 0 0 0 42.005 29.024 A 9.722 9.722 0 0 0 42.407 28.178 A 7.694 7.694 0 0 0 42.987 25.46 A 8.902 8.902 0 0 0 42.993 25.143 L 42.993 11.322 L 48.96 11.322 Z" id="1"/><path d="M 61.659 46.971 L 55.845 47.991 L 55.845 23.868 A 38.057 38.057 0 0 0 55.788 21.723 Q 55.693 20.038 55.437 18.743 Q 55.163 17.355 54.866 16.324 A 14.985 14.985 0 0 0 54.57 15.402 A 14.239 14.239 0 0 0 54.135 14.372 Q 53.901 13.876 53.651 13.466 A 7.052 7.052 0 0 0 53.346 13.005 L 57.936 11.169 A 6.01 6.01 0 0 1 58.575 11.93 A 8.065 8.065 0 0 1 59.058 12.699 Q 59.466 13.464 59.874 14.561 Q 60.252 15.575 60.454 16.917 A 17.068 17.068 0 0 1 60.486 17.136 Q 61.226 14.524 62.709 12.99 A 6.912 6.912 0 0 1 63.24 12.495 A 6.287 6.287 0 0 1 65.497 11.309 Q 66.4 11.038 67.477 10.953 A 12.936 12.936 0 0 1 68.493 10.914 A 10.831 10.831 0 0 1 70.534 11.097 A 7.968 7.968 0 0 1 72.649 11.807 Q 74.409 12.699 75.557 14.357 A 10.536 10.536 0 0 1 76.7 16.535 A 13.94 13.94 0 0 1 77.265 18.36 A 20.035 20.035 0 0 1 77.719 21.161 A 25.885 25.885 0 0 1 77.826 23.562 A 17.091 17.091 0 0 1 77.457 27.17 A 14.741 14.741 0 0 1 76.959 28.943 A 12.982 12.982 0 0 1 75.439 31.987 A 11.547 11.547 0 0 1 74.486 33.201 Q 72.879 34.986 70.635 36.006 A 11.432 11.432 0 0 1 66.982 36.962 A 13.916 13.916 0 0 1 65.637 37.026 Q 64.668 37.026 63.674 36.924 Q 62.679 36.822 61.659 36.72 L 61.659 46.971 Z M 61.659 25.041 L 61.659 32.385 A 8.096 8.096 0 0 0 61.946 32.465 Q 62.424 32.589 63.189 32.742 Q 64.209 32.946 64.974 32.946 Q 66.531 32.946 67.66 32.518 A 4.922 4.922 0 0 0 68.187 32.283 Q 69.462 31.62 70.227 30.447 A 6.912 6.912 0 0 0 70.974 28.892 A 9.04 9.04 0 0 0 71.298 27.642 A 17.657 17.657 0 0 0 71.553 25.596 A 22.298 22.298 0 0 0 71.604 24.072 Q 71.604 22.287 71.502 20.655 Q 71.4 19.023 70.967 17.748 Q 70.533 16.473 69.717 15.734 A 2.759 2.759 0 0 0 68.478 15.098 Q 68.04 14.994 67.524 14.994 A 3.591 3.591 0 0 0 65.381 15.706 A 4.555 4.555 0 0 0 65.178 15.861 A 6.946 6.946 0 0 0 64.005 17.088 A 9.066 9.066 0 0 0 63.316 18.156 A 12.177 12.177 0 0 0 62.398 20.288 A 14.66 14.66 0 0 0 62.092 21.369 Q 61.659 23.154 61.659 25.041 Z" id="2"/><path d="M 100.521 31.11 L 102.051 34.731 A 21.099 21.099 0 0 1 99.947 35.64 A 23.995 23.995 0 0 1 99.195 35.904 Q 97.869 36.363 96.135 36.72 Q 94.401 37.077 92.463 37.077 A 16.419 16.419 0 0 1 90.203 36.93 Q 88.656 36.715 87.414 36.185 A 9.119 9.119 0 0 1 84.999 34.695 A 8.266 8.266 0 0 1 83.997 33.66 Q 82.671 32.028 82.059 29.733 Q 81.447 27.438 81.447 24.633 Q 81.447 21.216 82.39 18.615 A 13.757 13.757 0 0 1 83.636 16.022 A 11.226 11.226 0 0 1 84.991 14.255 Q 86.649 12.495 88.893 11.603 A 12.791 12.791 0 0 1 93.093 10.724 A 14.785 14.785 0 0 1 93.738 10.71 A 15.668 15.668 0 0 1 95.458 10.799 Q 96.293 10.892 97.011 11.08 A 8.281 8.281 0 0 1 97.64 11.271 A 8.475 8.475 0 0 1 99.017 11.887 A 6.306 6.306 0 0 1 100.266 12.801 Q 101.286 13.77 101.771 15.096 Q 102.255 16.422 102.255 17.952 A 6.535 6.535 0 0 1 101.302 21.335 A 7.797 7.797 0 0 1 101.235 21.446 A 8.601 8.601 0 0 1 99.562 23.402 A 11.175 11.175 0 0 1 98.302 24.353 Q 96.39 25.602 93.687 26.342 Q 90.984 27.081 87.618 27.132 A 13.084 13.084 0 0 0 87.984 28.954 A 11.736 11.736 0 0 0 88.103 29.351 A 5.753 5.753 0 0 0 88.754 30.749 A 5.216 5.216 0 0 0 89.071 31.187 A 4.282 4.282 0 0 0 90.36 32.252 A 5.175 5.175 0 0 0 90.729 32.436 Q 91.57 32.814 92.757 32.881 A 9.34 9.34 0 0 0 93.279 32.895 Q 94.401 32.895 95.676 32.64 A 21.323 21.323 0 0 0 97.118 32.301 A 17.241 17.241 0 0 0 98.022 32.028 Q 99.297 31.62 100.521 31.11 Z M 93.279 14.688 Q 91.596 14.688 90.5 15.479 Q 89.403 16.269 88.74 17.519 A 9.123 9.123 0 0 0 87.985 19.473 A 10.921 10.921 0 0 0 87.796 20.324 Q 87.516 21.879 87.465 23.46 Q 89.913 23.358 91.622 22.823 A 12.326 12.326 0 0 0 92.893 22.35 Q 93.517 22.076 94.023 21.755 A 6.51 6.51 0 0 0 94.401 21.497 Q 95.472 20.706 95.956 19.788 A 4.305 4.305 0 0 0 96.335 18.813 A 3.572 3.572 0 0 0 96.441 17.952 A 4.099 4.099 0 0 0 96.319 16.925 A 2.952 2.952 0 0 0 95.574 15.581 A 2.898 2.898 0 0 0 93.846 14.726 A 4.066 4.066 0 0 0 93.279 14.688 Z" id="3"/><path d="M 122.502 12.699 L 120.768 16.677 Q 119.748 16.218 118.728 15.861 A 23.388 23.388 0 0 0 117.696 15.525 A 29.851 29.851 0 0 0 116.815 15.275 A 8.01 8.01 0 0 0 114.941 14.997 A 7.447 7.447 0 0 0 114.75 14.994 A 4.104 4.104 0 0 0 113.739 15.113 A 3.221 3.221 0 0 0 112.735 15.555 A 1.813 1.813 0 0 0 111.919 16.869 A 2.643 2.643 0 0 0 111.894 17.238 A 3.76 3.76 0 0 0 113.16 20.036 Q 114.209 21.038 116.127 21.777 A 27.768 27.768 0 0 1 117.809 22.49 A 21.928 21.928 0 0 1 118.983 23.078 A 9.564 9.564 0 0 1 120.395 24.002 A 7.966 7.966 0 0 1 121.15 24.684 Q 122.043 25.602 122.502 26.801 A 6.602 6.602 0 0 1 122.846 28.108 Q 122.961 28.815 122.961 29.631 Q 122.961 31.059 122.375 32.436 Q 121.788 33.813 120.641 34.884 A 8.102 8.102 0 0 1 118.751 36.188 A 9.955 9.955 0 0 1 117.835 36.593 A 9.431 9.431 0 0 1 115.654 37.133 A 12.196 12.196 0 0 1 114.087 37.23 Q 112.404 37.23 110.772 36.848 A 32.561 32.561 0 0 1 109.223 36.446 A 24.301 24.301 0 0 1 107.839 36.006 A 24.333 24.333 0 0 1 107.079 35.724 Q 106.303 35.421 105.778 35.141 A 7.217 7.217 0 0 1 105.774 35.139 L 105.009 34.782 L 106.896 30.498 L 107.559 30.855 A 10.622 10.622 0 0 0 108.106 31.168 Q 108.605 31.435 109.242 31.722 A 21.041 21.041 0 0 0 110.84 32.361 A 24.387 24.387 0 0 0 111.435 32.564 Q 112.515 32.916 113.422 32.944 A 5.036 5.036 0 0 0 113.577 32.946 A 7.162 7.162 0 0 0 114.508 32.89 Q 115.606 32.745 116.229 32.232 A 2.292 2.292 0 0 0 117.088 30.561 A 3.009 3.009 0 0 0 117.096 30.345 A 3.558 3.558 0 0 0 116.348 28.165 A 4.609 4.609 0 0 0 116.152 27.923 A 5.173 5.173 0 0 0 115.146 27.036 Q 114.646 26.693 114.016 26.403 A 10.57 10.57 0 0 0 113.322 26.112 A 24.387 24.387 0 0 1 111.135 25.173 Q 108.955 24.098 107.773 22.84 A 6.874 6.874 0 0 1 107.687 22.746 A 6.488 6.488 0 0 1 106.115 19.464 A 9.117 9.117 0 0 1 105.978 17.85 Q 105.978 16.422 106.641 15.122 Q 107.304 13.821 108.452 12.827 A 8.126 8.126 0 0 1 110.509 11.537 A 9.676 9.676 0 0 1 111.18 11.271 A 9.877 9.877 0 0 1 113.91 10.73 A 11.566 11.566 0 0 1 114.597 10.71 Q 116.076 10.71 117.504 11.016 Q 118.932 11.322 120.054 11.73 A 30.416 30.416 0 0 1 121.632 12.324 A 25.019 25.019 0 0 1 122.502 12.699 Z" id="4"/><path d="M 145.146 14.178 L 141.882 17.289 A 12.545 12.545 0 0 0 141.013 16.394 A 10.082 10.082 0 0 0 140.326 15.81 Q 139.63 15.271 138.518 15.207 A 5.348 5.348 0 0 0 138.21 15.198 A 6.058 6.058 0 0 0 137.427 15.252 Q 136.988 15.309 136.502 15.428 Q 135.583 15.651 134.785 16.503 A 5.331 5.331 0 0 0 134.742 16.55 A 4.723 4.723 0 0 0 134.147 17.375 Q 133.717 18.119 133.391 19.176 A 9.997 9.997 0 0 0 133.086 20.509 Q 132.857 21.913 132.855 23.838 A 32.848 32.848 0 0 0 132.855 23.868 A 27.662 27.662 0 0 0 132.907 25.627 Q 133.018 27.36 133.363 28.545 A 7.891 7.891 0 0 0 133.39 28.637 A 10.706 10.706 0 0 0 133.795 29.753 Q 134.038 30.317 134.325 30.768 A 5.033 5.033 0 0 0 134.768 31.365 Q 135.609 32.334 136.578 32.615 Q 137.547 32.895 138.465 32.895 A 8.786 8.786 0 0 0 139.659 32.811 A 9.989 9.989 0 0 0 139.944 32.768 Q 140.709 32.64 141.423 32.462 A 49.501 49.501 0 0 0 142.014 32.31 Q 142.282 32.24 142.518 32.174 A 27.054 27.054 0 0 0 142.673 32.13 A 18.154 18.154 0 0 0 142.923 32.057 Q 143.272 31.952 143.463 31.875 L 144.891 35.547 A 1.383 1.383 0 0 0 144.82 35.573 Q 144.638 35.646 144.203 35.853 Q 143.679 36.102 142.789 36.352 A 17.522 17.522 0 0 1 142.749 36.363 A 18.324 18.324 0 0 1 142.01 36.551 Q 141.599 36.647 141.134 36.739 A 34.526 34.526 0 0 1 140.556 36.848 Q 139.281 37.077 137.7 37.077 A 16.419 16.419 0 0 1 135.44 36.93 Q 133.893 36.715 132.651 36.185 A 9.24 9.24 0 0 1 130.076 34.564 A 8.528 8.528 0 0 1 129.208 33.66 A 9.96 9.96 0 0 1 127.609 30.906 A 12.205 12.205 0 0 1 127.22 29.733 A 17.23 17.23 0 0 1 126.687 26.828 A 22.131 22.131 0 0 1 126.582 24.633 A 21.695 21.695 0 0 1 126.778 21.646 A 15.927 15.927 0 0 1 127.474 18.666 A 14.02 14.02 0 0 1 128.607 16.157 A 11.151 11.151 0 0 1 129.948 14.306 Q 131.529 12.546 133.671 11.628 Q 135.813 10.71 138.261 10.71 Q 140.458 10.71 142.034 11.481 A 6.272 6.272 0 0 1 142.316 11.628 A 8.558 8.558 0 0 1 145.054 14.052 A 9.887 9.887 0 0 1 145.146 14.178 Z" id="5"/><path d="M 155.295 22.746 L 155.295 36.72 L 149.481 36.72 L 149.481 23.868 A 38.057 38.057 0 0 0 149.424 21.723 Q 149.329 20.038 149.073 18.743 Q 148.799 17.355 148.502 16.324 A 14.985 14.985 0 0 0 148.206 15.402 A 14.239 14.239 0 0 0 147.771 14.372 Q 147.537 13.876 147.287 13.466 A 7.052 7.052 0 0 0 146.982 13.005 L 151.572 11.169 A 10.541 10.541 0 0 1 151.983 11.709 Q 152.254 12.087 152.541 12.546 Q 152.895 13.165 153.249 13.976 A 21.364 21.364 0 0 1 153.357 14.229 A 9.47 9.47 0 0 1 153.706 15.216 Q 153.885 15.82 154.02 16.524 A 11.323 11.323 0 0 1 154.83 14.686 Q 155.398 13.67 156.133 12.954 A 5.998 5.998 0 0 1 156.978 12.266 Q 158.916 10.965 161.364 10.965 Q 162.537 10.965 163.557 11.246 A 136.184 136.184 0 0 1 163.785 11.308 Q 164.56 11.523 164.527 11.526 A 0.012 0.012 0 0 1 164.526 11.526 L 162.894 17.187 A 0.006 0.006 0 0 0 162.897 17.187 Q 162.914 17.176 162.452 16.971 A 38.561 38.561 0 0 0 162.308 16.907 A 2.593 2.593 0 0 0 161.847 16.759 Q 161.272 16.626 160.395 16.626 A 3.907 3.907 0 0 0 158.989 16.895 A 4.798 4.798 0 0 0 158.559 17.085 Q 157.641 17.544 156.927 18.335 A 6.097 6.097 0 0 0 156.066 19.577 A 7.515 7.515 0 0 0 155.754 20.247 A 6.158 6.158 0 0 0 155.34 21.91 A 7.602 7.602 0 0 0 155.295 22.746 Z" id="6"/><path d="M 167.637 31.161 L 167.637 11.322 L 173.451 11.322 L 173.451 30.651 Q 173.451 31.824 173.808 32.232 A 1.132 1.132 0 0 0 174.358 32.573 Q 174.589 32.64 174.879 32.64 L 175.313 32.64 Q 175.542 32.64 175.746 32.589 A 1.945 1.945 0 0 0 175.948 32.578 Q 176.053 32.567 176.169 32.545 A 3.296 3.296 0 0 0 176.205 32.538 L 176.817 36.21 A 2.856 2.856 0 0 1 176.521 36.356 Q 176.25 36.472 175.899 36.567 A 4.86 4.86 0 0 1 175.522 36.675 Q 175.315 36.726 175.074 36.769 A 10.243 10.243 0 0 1 174.752 36.822 A 9.051 9.051 0 0 1 174.02 36.899 Q 173.63 36.924 173.196 36.924 A 7.277 7.277 0 0 1 171.559 36.751 Q 170.363 36.475 169.517 35.759 A 4.447 4.447 0 0 1 169.065 35.318 A 5.546 5.546 0 0 1 167.763 32.592 A 7.789 7.789 0 0 1 167.637 31.161 Z M 171.635 0.104 A 4.405 4.405 0 0 0 170.646 0 Q 168.861 0 167.969 1.02 A 3.474 3.474 0 0 0 167.223 2.429 A 4.594 4.594 0 0 0 167.076 3.621 A 4.459 4.459 0 0 0 167.079 3.776 A 3.466 3.466 0 0 0 167.969 6.044 A 2.882 2.882 0 0 0 169.458 6.921 A 4.292 4.292 0 0 0 170.493 7.038 A 5.699 5.699 0 0 0 170.654 7.036 Q 171.21 7.02 171.675 6.895 A 2.855 2.855 0 0 0 173.12 6.018 A 3.475 3.475 0 0 0 173.841 4.709 A 4.318 4.318 0 0 0 174.012 3.468 A 4.662 4.662 0 0 0 173.943 2.652 A 3.345 3.345 0 0 0 173.145 0.969 Q 172.562 0.318 171.635 0.104 Z" id="7"/><path d="M 187.17 46.971 L 181.356 47.991 L 181.356 23.868 A 38.057 38.057 0 0 0 181.299 21.723 Q 181.204 20.038 180.948 18.743 Q 180.674 17.355 180.377 16.324 A 14.985 14.985 0 0 0 180.081 15.402 A 14.239 14.239 0 0 0 179.646 14.372 Q 179.412 13.876 179.162 13.466 A 7.052 7.052 0 0 0 178.857 13.005 L 183.447 11.169 A 6.01 6.01 0 0 1 184.086 11.93 A 8.065 8.065 0 0 1 184.569 12.699 Q 184.977 13.464 185.385 14.561 Q 185.763 15.575 185.965 16.917 A 17.068 17.068 0 0 1 185.997 17.136 Q 186.737 14.524 188.22 12.99 A 6.912 6.912 0 0 1 188.751 12.495 A 6.287 6.287 0 0 1 191.008 11.309 Q 191.911 11.038 192.988 10.953 A 12.936 12.936 0 0 1 194.004 10.914 A 10.831 10.831 0 0 1 196.045 11.097 A 7.968 7.968 0 0 1 198.16 11.807 Q 199.92 12.699 201.068 14.357 A 10.536 10.536 0 0 1 202.211 16.535 A 13.94 13.94 0 0 1 202.776 18.36 A 20.035 20.035 0 0 1 203.23 21.161 A 25.885 25.885 0 0 1 203.337 23.562 A 17.091 17.091 0 0 1 202.968 27.17 A 14.741 14.741 0 0 1 202.47 28.943 A 12.982 12.982 0 0 1 200.95 31.987 A 11.547 11.547 0 0 1 199.997 33.201 Q 198.39 34.986 196.146 36.006 A 11.432 11.432 0 0 1 192.493 36.962 A 13.916 13.916 0 0 1 191.148 37.026 Q 190.179 37.026 189.185 36.924 Q 188.19 36.822 187.17 36.72 L 187.17 46.971 Z M 187.17 25.041 L 187.17 32.385 A 8.096 8.096 0 0 0 187.457 32.465 Q 187.935 32.589 188.7 32.742 Q 189.72 32.946 190.485 32.946 Q 192.042 32.946 193.171 32.518 A 4.922 4.922 0 0 0 193.698 32.283 Q 194.973 31.62 195.738 30.447 A 6.912 6.912 0 0 0 196.485 28.892 A 9.04 9.04 0 0 0 196.809 27.642 A 17.657 17.657 0 0 0 197.064 25.596 A 22.298 22.298 0 0 0 197.115 24.072 Q 197.115 22.287 197.013 20.655 Q 196.911 19.023 196.478 17.748 Q 196.044 16.473 195.228 15.734 A 2.759 2.759 0 0 0 193.989 15.098 Q 193.551 14.994 193.035 14.994 A 3.591 3.591 0 0 0 190.892 15.706 A 4.555 4.555 0 0 0 190.689 15.861 A 6.946 6.946 0 0 0 189.516 17.088 A 9.066 9.066 0 0 0 188.827 18.156 A 12.177 12.177 0 0 0 187.909 20.288 A 14.66 14.66 0 0 0 187.603 21.369 Q 187.17 23.154 187.17 25.041 Z" id="8"/><path d="M 205.683 15.453 L 205.683 11.322 L 210.273 11.322 L 211.293 5.355 L 216.087 4.284 L 216.087 11.322 L 222.36 11.322 L 221.646 15.453 L 216.087 15.453 L 216.087 30.549 A 3.818 3.818 0 0 0 216.126 31.119 Q 216.236 31.843 216.653 32.162 A 1.093 1.093 0 0 0 216.801 32.258 A 3.262 3.262 0 0 0 218.247 32.638 A 3.851 3.851 0 0 0 218.382 32.64 Q 219.096 32.64 219.81 32.538 A 12.405 12.405 0 0 0 220.476 32.425 Q 220.8 32.361 221.085 32.283 Q 221.748 32.13 222.36 31.926 L 223.329 35.751 L 222.87 35.904 Q 222.487 36.075 221.801 36.263 A 18.152 18.152 0 0 1 221.519 36.338 Q 220.752 36.535 219.759 36.694 A 29.185 29.185 0 0 1 219.427 36.746 A 16.054 16.054 0 0 1 218.007 36.89 A 20.545 20.545 0 0 1 216.801 36.924 A 11.678 11.678 0 0 1 215.267 36.827 A 9.412 9.412 0 0 1 214.175 36.618 Q 212.976 36.312 212.109 35.624 A 4.629 4.629 0 0 1 210.804 33.964 A 5.399 5.399 0 0 1 210.758 33.864 A 5.041 5.041 0 0 1 210.418 32.789 Q 210.311 32.266 210.283 31.661 A 9.617 9.617 0 0 1 210.273 31.212 L 210.273 15.453 L 205.683 15.453 Z" id="9"/></g></svg>